<?xml version="1.0" encoding="UTF-8"?>
<!DOCTYPE svg  PUBLIC '-//W3C//DTD SVG 1.1//EN'  'http://www.w3.org/Graphics/SVG/1.1/DTD/svg11.dtd'>
<svg clip-rule="evenodd" fill-rule="evenodd" image-rendering="optimizeQuality" shape-rendering="geometricPrecision" text-rendering="geometricPrecision" version="1.1" viewBox="0 0 512 512" xmlns="http://www.w3.org/2000/svg">
<path d="m290.5 28.5c0.79 0.9013 1.79 1.5679 3 2 0.79 0.9013 1.79 1.5679 3 2 1.642 1.303 3.309 2.6363 5 4 0.333 1 1 1.6667 2 2 2.157 3.1316 4.49 6.1316 7 9 2.426 5.617 4.426 11.284 6 17 0.887 5.6454 1.054 11.312 0.5 17-1.43 7.9318-3.43 15.598-6 23 40.017 0.138 78.017 0.138 114 0 2.972 1.679 5.639 2.012 8 1 0.333 0.667 0.667 1.333 1 2h4c1.615 0.886 3.115 1.886 4.5 3 0.79 0.901 1.79 1.568 3 2 0.333 1 1 1.667 2 2 0.667 1.333 1.667 2.333 3 3 1.353 2.705 2.686 5.372 4 8 2.278 10.231 0.945 19.898-4 29-0.988 1.295-1.988 2.628-3 4-1.667 1-3 2.333-4 4-2.56 1.773-4.893 3.773-7 6-3.026 2.695-6.026 5.362-9 8-1.667 1-3 2.333-4 4-2.947 1.281-5.281 3.281-7 6-1.889 1.104-3.555 2.437-5 4-1.667 1-3 2.333-4 4-2.254 0.624-3.921 1.957-5 4-1.667 1-3 2.333-4 4-1.889 1.104-3.555 2.437-5 4-1.667 1-3 2.333-4 4-2.947 1.281-5.281 3.281-7 6-1.889 1.104-3.555 2.437-5 4-1.667 1-3 2.333-4 4-2.721 1.196-3.887 3.196-3.5 6 30.062 29.895 59.895 59.895 89.5 90 3.085 3.621 5.418 7.621 7 12 2.249 9.903 0.915 19.237-4 28-2.333 3-5 5.667-8 8-6.28 2.817-12.614 4.484-19 5-0.333-1.333-0.667-1.333-1 0h-114c-2.331-0.817-4.831-1.484-7.5-2-0.765 0.07-1.265 0.403-1.5 1-0.617 0.111-1.117 0.444-1.5 1-2.742 28.634-9.409 56.301-20 83-2.925 6.185-6.091 12.185-9.5 18-1.988 2.628-3.988 5.295-6 8-2.358 2.029-4.692 4.029-7 6-5.433 2.275-11.099 3.775-17 4.5-17.939-0.058-34.272 0.108-49 0.5-0.333-1.333-0.667-1.333-1 0h-1c-0.333-1.333-0.667-1.333-1 0h-2c-0.333-1.333-0.667-1.333-1 0h-27c-0.333-1.333-0.667-1.333-1 0h-2c-0.333-1.333-0.667-1.333-1 0h-2c-0.333-1.333-0.667-1.333-1 0h-1c-0.333-1.333-0.667-1.333-1 0h-5c-4.233-1.297-8.567-2.631-13-4-0.79-0.901-1.79-1.568-3-2-5.134-3.409-8.467-7.743-10-13-3.087-7.112-3.753-14.446-2-22 0.934-1.068 1.268-2.401 1-4 0.904-0.709 1.237-1.709 1-3 0.904-0.709 1.237-1.709 1-3 1.902-2.141 2.569-4.474 2-7 0.904-0.709 1.237-1.709 1-3 0.934-1.068 1.268-2.401 1-4 1.54-2.338 2.206-5.005 2-8 2.952-11.915 5.285-23.749 7-35.5-0.29-3.276-0.29-6.776 0-10.5 0.804-4.648 1.471-9.648 2-15-0.02-74.938-0.02-150.1 0-225.5 1.773-4.049 3.106-7.882 4-11.5 0.808-1.72 1.808-3.387 3-5 1.638-1.205 1.971-2.538 1-4-0.16-1.653-0.826-2.986-2-4-1.012-1.372-2.012-2.705-3-4-0.489-1.495-1.155-2.829-2-4-0.489-1.495-1.155-2.8285-2-4-1.861-7.1429-3.528-14.31-5-21.5 1.521-6.4362 2.854-12.936 4-19.5 0.904-0.709 1.237-1.709 1-3 0.838-0.3417 1.172-1.0084 1-2 0.838-0.3417 1.172-1.0084 1-2 0.838-0.3417 1.172-1.0084 1-2 2.593-2.7514 4.593-5.418 6-8 1-0.3333 1.667-1 2-2 1-0.3333 1.667-1 2-2 1.346-2.3787 3.013-3.712 5-4 1.21-0.4321 2.21-1.0987 3-2 2.509-1.8436 5.009-3.5103 7.5-5 2.055 0.348 4.055-0.3186 6-2 2.26-0.1733 4.593-0.1733 7 0 0.853-1.6247 1.853-1.9581 3-1 1.333-0.6667 2.667-1.3333 4-2 24.866 0.9357 48.866 0.9357 72 0 1.333 0.6667 2.667 1.3333 4 2h6c2.088 0.8081 4.088 1.8081 6 3 0.333-0.3333 0.667-0.6667 1-1 1.667 1 3.333 2 5 3 0.333-0.3333 0.667-0.6667 1-1 0.72 1.5557 1.887 2.5557 3.5 3z" fill="#686868" opacity=".118"/>
<path d="m301.5 371.5c-1.875 8.789-3.209 17.789-4 27-4.018 27.895-14.018 53.395-30 76.5-3.683 3.34-8.016 5.34-13 6-32.987 1.476-65.987 1.809-99 1-15.621-2.361-22.788-11.528-21.5-27.5 9.581-28.573 15.581-57.906 18-88 1.261-78.657 1.928-157.32 2-236 1.142-9.17 5.975-15.337 14.5-18.5-20.135-15.944-25.635-36.111-16.5-60.5 10.778-17.557 26.611-26.557 47.5-27 19.336 1.333 38.669 1.333 58 0 16.249 0.6853 30.082 6.6853 41.5 18 14.617 21.77 13.617 42.77-3 63-2.303 1.893-4.47 3.893-6.5 6 1.626 1.49 3.292 2.99 5 4.5 3.854-2.408 8.187-4.075 13-5 40.333-0.667 80.667-0.667 121 0 12.389 2.101 19.056 9.434 20 22-1.385 3.679-2.218 7.512-2.5 11.5-29.607 27.099-59.44 54.099-89.5 81 32.32 32.82 64.82 65.486 97.5 98 9.55 14.197 7.383 26.364-6.5 36.5-3.029 0.539-6.029 1.206-9 2-39.333 0.667-78.667 0.667-118 0-7.204-0.685-13.038-3.851-17.5-9.5-1.188 6.278-1.688 12.612-1.5 19z" fill="#fcfcfc"/>
<path d="m290.5 27.5c1.333 0.6667 1.333 0.6667 0 0z" fill="#656665" opacity=".027"/>
<path d="m164.5 29.5c-0.667-1.3333-0.667-1.3333 0 0z" fill="#656665" opacity=".027"/>
<path d="m293.5 29.5c1.333 0.6667 1.333 0.6667 0 0z" fill="#656665" opacity=".027"/>
<path d="m161.5 31.5c-0.667-1.3333-0.667-1.3333 0 0z" fill="#656665" opacity=".027"/>
<path d="m296.5 31.5c1.333 0.6667 1.333 0.6667 0 0z" fill="#656665" opacity=".027"/>
<path d="m156.5 35.5c-0.667-1.3333-0.667-1.3333 0 0z" fill="#656665" opacity=".027"/>
<path d="m301.5 35.5c1.333 0.6667 1.333 0.6667 0 0z" fill="#656665" opacity=".027"/>
<path d="m154.5 37.5c-0.667-1.3333-0.667-1.3333 0 0z" fill="#656665" opacity=".027"/>
<path d="m303.5 37.5c1.333 0.6667 1.333 0.6667 0 0z" fill="#656665" opacity=".027"/>
<path d="m152.5 39.5c-0.667-1.3333-0.667-1.3333 0 0z" fill="#656665" opacity=".027"/>
<path d="m146.5 47.5c-0.667-1.3333-0.667-1.3333 0 0z" fill="#656665" opacity=".027"/>
<path d="m310.5 46.5c1.333 0.6667 1.333 0.6667 0 0z" fill="#656665" opacity=".027"/>
<path d="m145.5 49.5c-0.667-1.3333-0.667-1.3333 0 0z" fill="#656665" opacity=".027"/>
<path d="m211.5 48.5v1c-8-1.3333-16-1.3333-24 0 3.703-1.555 7.703-2.2217 12-2 4.035 0.1126 8.035 0.4459 12 1z" fill="#616060"/>
<path d="m211.5 49.5c17.443 7.56 21.943 19.893 13.5 37-3.531 4.705-8.031 8.0383-13.5 10-4.963 0.754-9.963 1.0874-15 1-12.47 0.1175-20.97-5.5492-25.5-17-2.663-10.518-0.163-19.351 7.5-26.5 2.786-2.0596 5.786-3.5596 9-4.5 8-1.3333 16-1.3333 24 0z" fill="#040303"/>
<path d="m229.5 48.5c19.266 8.4101 23.766 21.743 13.5 40-3.859 4.0371-8.359 7.0371-13.5 9-6.151 1.1643-12.151 1.1643-18 0v-1c5.469-1.9617 9.969-5.295 13.5-10 8.443-17.107 3.943-29.44-13.5-37v-1c5.849-1.1643 11.849-1.1643 18 0z" fill="#fa1c06"/>
<path d="m229.5 48.5c6.204-1.2701 12.537-1.2701 19 0 18.542 7.1152 23.709 19.782 15.5 38-3.552 4.7328-8.052 8.0662-13.5 10-7.009 2.1781-14.009 2.5114-21 1 5.141-1.9629 9.641-4.9629 13.5-9 10.266-18.257 5.766-31.59-13.5-40z" fill="#fcfc1a"/>
<path d="m248.5 48.5c9.28-2.0161 18.28-0.8494 27 3.5 14.207 11.598 15.541 24.598 4 39-8.221 5.3053-17.221 7.6387-27 7-0.916-0.2784-1.582-0.7784-2-1.5 5.448-1.9338 9.948-5.2672 13.5-10 8.209-18.218 3.042-30.885-15.5-38z" fill="#aeedfc"/>
<path d="m144.5 51.5c-0.667-1.3333-0.667-1.3333 0 0z" fill="#656665" opacity=".027"/>
<path d="m143.5 53.5c-0.667-1.3333-0.667-1.3333 0 0z" fill="#656665" opacity=".027"/>
<path d="m142.5 56.5c-0.667-1.3333-0.667-1.3333 0 0z" fill="#656665" opacity=".027"/>
<path d="m140.5 58.5c1.333 0.6667 1.333 0.6667 0 0z" fill="#656665" opacity=".027"/>
<path d="m139.5 62.5c1.333 0.6667 1.333 0.6667 0 0z" fill="#656665" opacity=".027"/>
<path d="m316.5 63.5c1.333 0.6667 1.333 0.6667 0 0z" fill="#656665" opacity=".027"/>
<path d="m138.5 67.5c1.333 0.6667 1.333 0.6667 0 0z" fill="#656665" opacity=".027"/>
<path d="m138.5 83.5c1.333 0.6667 1.333 0.6667 0 0z" fill="#656665" opacity=".027"/>
<path d="m139.5 88.5c1.333 0.6667 1.333 0.6667 0 0z" fill="#656665" opacity=".027"/>
<path d="m140.5 92.5c1.333 0.6667 1.333 0.6667 0 0z" fill="#656665" opacity=".027"/>
<path d="m143.5 97.5c-0.667 0.6667-0.667 0.6667 0 0z" fill="#656665" opacity=".027"/>
<path d="m211.5 96.5v1c-5.145 1.1907-10.145 1.1907-15 0 5.037 0.0874 10.037-0.246 15-1z" fill="#88827f"/>
<path d="m312.5 100.5c1.333 0.667 1.333 0.667 0 0z" fill="#656665" opacity=".027"/>
<path d="m145.5 101.5c-0.667 0.667-0.667 0.667 0 0z" fill="#656665" opacity=".027"/>
<path d="m314.5 103.5c1.333 0.667 1.333 0.667 0 0z" fill="#656665" opacity=".027"/>
<path d="m147.5 105.5c-0.667 0.667-0.667 0.667 0 0z" fill="#656665" opacity=".027"/>
<path d="m150.5 109.5c-0.667 0.667-0.667 0.667 0 0z" fill="#656665" opacity=".027"/>
<path d="m442.5 109.5c1.333 0.667 1.333 0.667 0 0z" fill="#656665" opacity=".027"/>
<path d="m445.5 111.5c1.333 0.667 1.333 0.667 0 0z" fill="#656665" opacity=".027"/>
<path d="m152.5 113.5c-0.667 0.667-0.667 0.667 0 0z" fill="#656665" opacity=".027"/>
<path d="m447.5 113.5c1.333 0.667 1.333 0.667 0 0z" fill="#656665" opacity=".027"/>
<path d="m151.5 117.5c-0.667-1.333-0.667-1.333 0 0z" fill="#656665" opacity=".027"/>
<path d="m450.5 116.5c1.333 0.667 1.333 0.667 0 0z" fill="#656665" opacity=".027"/>
<path d="m148.5 122.5c-0.667-1.333-0.667-1.333 0 0z" fill="#656665" opacity=".027"/>
<path d="m454.5 124.5c1.333 0.667 1.333 0.667 0 0z" fill="#656665" opacity=".027"/>
<path d="m144.5 129.5c1.333 0.667 1.333 0.667 0 0z" fill="#656665" opacity=".027"/>
<path d="m368.5 133.5v-1h19c0.172 0.992-0.162 1.658-1 2-5.81-0.99-11.81-1.323-18-1z" fill="#e68162"/>
<path d="m222.5 132.5v1h-46c0.333 70.502-1e-3 140.84-1 211v-212h47z" fill="#373635"/>
<path d="m368.5 132.5v1c-34.636 29.968-68.969 60.301-103 91 38.124 38.456 76.124 76.789 114 115-19.336 0.167-38.67 0-58-0.5-13.868-14.035-27.868-27.869-42-41.5-5.667-6.333-11.667-12.333-18-18-0.333-1-1-1.667-2-2-5.333-6-11-11.667-17-17-5.436-5.938-11.103-11.771-17-17.5-0.948-0.483-1.948-0.649-3-0.5 0.397 45.015-0.103 90.015-1.5 135-2.085 14.841-5.085 29.508-9 44-5.024 13.047-10.857 25.714-17.5 38-13.044 0.647-25.711-0.02-38-2 5.405-15.288 9.405-30.955 12-47 1.413-2.719 2.08-5.719 2-9 2.921-18.88 4.588-37.88 5-57 0.999-70.165 1.333-140.5 1-211h46v32c-0.333 15.348 1e-3 30.681 1 46 0.607-0.124 0.94-0.457 1-1 6-5.667 12-11.333 18-17 6.303-4.968 12.303-10.302 18-16 0.667 0 1-0.333 1-1 6.622-5.614 13.289-11.281 20-17 9.621-8.616 19.288-17.283 29-26 19.322-1 38.655-1.333 58-1z" fill="#010101"/>
<path d="m222.5 132.5h20v1h-19v32h-1v-32-1z" fill="#b13622"/>
<path d="m242.5 133.5v60c-6 5.667-12 11.333-18 17-0.996-14.824-1.329-29.824-1-45v-32h19z" fill="#fc1000"/>
<path d="m242.5 133.5h18v44c-5.697 5.698-11.697 11.032-18 16v-60z" fill="#fdfc00"/>
<path d="m242.5 133.5v-1h19v44c0 0.667-0.333 1-1 1v-44h-18z" fill="#ebf642"/>
<path d="m261.5 132.5h19c-0.327 9.182 7e-3 18.182 1 27-6.711 5.719-13.378 11.386-20 17v-44z" fill="#abebfc"/>
<path d="m368.5 133.5c6.19-0.323 12.19 0.01 18 1-34.268 29.264-67.934 59.264-101 90 38.021 38.354 76.021 76.688 114 115h-20c-37.876-38.211-75.876-76.544-114-115 34.031-30.699 68.364-61.032 103-91z" fill="#f91001"/>
<path d="m387.5 132.5h18c1.098 0.897 1.098 1.73 0 2.5-34.083 29.373-67.75 59.206-101 89.5 37.688 38.021 75.354 76.021 113 114-5.81 0.99-11.81 1.323-18 1-37.979-38.312-75.979-76.646-114-115 33.066-30.736 66.732-60.736 101-90 0.838-0.342 1.172-1.008 1-2z" fill="#fdfc0b"/>
<path d="m405.5 132.5c6.7-0.33 13.366 3e-3 20 1-34.051 30.391-68.051 60.724-102 91 37.82 38.32 75.82 76.486 114 114.5-6.325 0.5-12.658 0.666-19 0.5 0-0.667-0.333-1-1-1-37.646-37.979-75.312-75.979-113-114 33.25-30.294 66.917-60.127 101-89.5 1.098-0.77 1.098-1.603 0-2.5z" fill="#acecfc"/>
<path d="m456.5 133.5c1.333 0.667 1.333 0.667 0 0z" fill="#656665" opacity=".027"/>
<path d="m456.5 135.5c1.333 0.667 1.333 0.667 0 0z" fill="#656665" opacity=".027"/>
<path d="m143.5 136.5c1.333 0.667 1.333 0.667 0 0z" fill="#656665" opacity=".027"/>
<path d="m456.5 137.5c1.333 0.667 1.333 0.667 0 0z" fill="#656665" opacity=".027"/>
<path d="m456.5 139.5c1.333 0.667 1.333 0.667 0 0z" fill="#656665" opacity=".027"/>
<path d="m450.5 154.5c1.333 0.667 1.333 0.667 0 0z" fill="#656665" opacity=".027"/>
<path d="m447.5 158.5c1.333 0.667 1.333 0.667 0 0z" fill="#656665" opacity=".027"/>
<path d="m443.5 162.5c1.333 0.667 1.333 0.667 0 0z" fill="#656665" opacity=".027"/>
<path d="m222.5 165.5h1c-0.329 15.176 4e-3 30.176 1 45-0.06 0.543-0.393 0.876-1 1-0.999-15.319-1.333-30.652-1-46z" fill="#741111"/>
<path d="m436.5 168.5c1.333 0.667 1.333 0.667 0 0z" fill="#656665" opacity=".027"/>
<path d="m427.5 176.5c1.333 0.667 1.333 0.667 0 0z" fill="#656665" opacity=".027"/>
<path d="m423.5 180.5c1.333 0.667 1.333 0.667 0 0z" fill="#656665" opacity=".027"/>
<path d="m419.5 184.5c1.333 0.667 1.333 0.667 0 0z" fill="#656665" opacity=".027"/>
<path d="m416.5 186.5c1.333 0.667 1.333 0.667 0 0z" fill="#656665" opacity=".027"/>
<path d="m411.5 190.5c1.333 0.667 1.333 0.667 0 0z" fill="#656665" opacity=".027"/>
<path d="m407.5 194.5c1.333 0.667 1.333 0.667 0 0z" fill="#656665" opacity=".027"/>
<path d="m402.5 198.5c1.333 0.667 1.333 0.667 0 0z" fill="#656665" opacity=".027"/>
<path d="m398.5 202.5c1.333 0.667 1.333 0.667 0 0z" fill="#656665" opacity=".027"/>
<path d="m393.5 206.5c1.333 0.667 1.333 0.667 0 0z" fill="#656665" opacity=".027"/>
<path d="m389.5 210.5c1.333 0.667 1.333 0.667 0 0z" fill="#656665" opacity=".027"/>
<path d="m385.5 214.5c1.333 0.667 1.333 0.667 0 0z" fill="#656665" opacity=".027"/>
<path d="m382.5 216.5c1.333 0.667 1.333 0.667 0 0z" fill="#656665" opacity=".027"/>
<path d="m377.5 220.5c1.333 0.667 1.333 0.667 0 0z" fill="#656665" opacity=".027"/>
<path d="m373.5 224.5c1.333 0.667 1.333 0.667 0 0z" fill="#656665" opacity=".027"/>
<path d="m370.5 228.5c1.333 0.667 1.333 0.667 0 0z" fill="#656665" opacity=".027"/>
<path d="m242.5 260.5v48c0.949 27.478-0.551 54.811-4.5 82-3.725 24.682-11.892 47.682-24.5 69h-19c6.643-12.286 12.476-24.953 17.5-38 3.915-14.492 6.915-29.159 9-44 1.397-44.985 1.897-89.985 1.5-135 1.052-0.149 2.052 0.017 3 0.5 5.897 5.729 11.564 11.562 17 17.5z" fill="#f90e01"/>
<path d="m242.5 260.5c6 5.333 11.667 11 17 17-5.575-4.067-10.741-8.734-15.5-14-0.169 15.172-0.669 30.172-1.5 45v-48z" fill="#e3d807"/>
<path d="m259.5 277.5c1 0.333 1.667 1 2 2 0.167 25.002 0 50.002-0.5 75-1.139 27.833-6.472 54.833-16 81-3.399 8.468-7.566 16.468-12.5 24h-19c12.608-21.318 20.775-44.318 24.5-69 3.949-27.189 5.449-54.522 4.5-82 0.831-14.828 1.331-29.828 1.5-45 4.759 5.266 9.925 9.933 15.5 14z" fill="#fefd05"/>
<path d="m261.5 279.5c6.333 5.667 12.333 11.667 18 18 3.601 42.252 0.101 83.918-10.5 125-4.292 12.861-10.126 25.028-17.5 36.5-6.325 0.5-12.658 0.666-19 0.5 4.934-7.532 9.101-15.532 12.5-24 9.528-26.167 14.861-53.167 16-81 0.5-24.998 0.667-49.998 0.5-75z" fill="#abecfd"/>
<path d="m459.5 319.5c1.333 0.667 1.333 0.667 0 0z" fill="#656665" opacity=".027"/>
<path d="m466.5 331.5c1.333 0.667 1.333 0.667 0 0z" fill="#656665" opacity=".027"/>
<path d="m417.5 338.5c0.667 0 1 0.333 1 1-6.333 1.333-12.667 1.333-19 0 6.19 0.323 12.19-0.01 18-1z" fill="#f1f6ad"/>
<path d="m468.5 341.5c1.333 0.667 1.333 0.667 0 0z" fill="#656665" opacity=".027"/>
<path d="m468.5 343.5c1.333 0.667 1.333 0.667 0 0z" fill="#656665" opacity=".027"/>
<path d="m468.5 345.5c1.333 0.667 1.333 0.667 0 0z" fill="#656665" opacity=".027"/>
<path d="m142.5 356.5c1.333 0.667 1.333 0.667 0 0z" fill="#656665" opacity=".027"/>
<path d="m142.5 358.5c1.333 0.667 1.333 0.667 0 0z" fill="#656665" opacity=".027"/>
<path d="m142.5 360.5c1.333 0.667 1.333 0.667 0 0z" fill="#656665" opacity=".027"/>
<path d="m462.5 360.5c1.333 0.667 1.333 0.667 0 0z" fill="#656665" opacity=".027"/>
<path d="m142.5 362.5c1.333 0.667 1.333 0.667 0 0z" fill="#656665" opacity=".027"/>
<path d="m454.5 368.5c1.333 0.667 1.333 0.667 0 0z" fill="#656665" opacity=".027"/>
<path d="m311.5 372.5c1.333 0.667 1.333 0.667 0 0z" fill="#656665" opacity=".027"/>
<path d="m445.5 372.5c1.333 0.667 1.333 0.667 0 0z" fill="#656665" opacity=".027"/>
<path d="m317.5 373.5c1.333 0.667 1.333 0.667 0 0z" fill="#656665" opacity=".027"/>
<path d="m320.5 373.5c-0.667 0.667-0.667 0.667 0 0z" fill="#656665" opacity=".027"/>
<path d="m434.5 373.5h1c-0.185 0.67-0.519 0.67-1 0z" fill="#656665" opacity=".027"/>
<path d="m440.5 373.5c1.333 0.667 1.333 0.667 0 0z" fill="#656665" opacity=".027"/>
<path d="m142.5 374.5c-0.667 0.667-0.667 0.667 0 0z" fill="#656665" opacity=".027"/>
<path d="m314.5 374.5c1.333 0.667 1.333 0.667 0 0z" fill="#656665" opacity=".027"/>
<path d="m324.5 374.5c1.333 0.667 1.333 0.667 0 0z" fill="#656665" opacity=".027"/>
<path d="m327.5 374.5c1.333 0.667 1.333 0.667 0 0z" fill="#656665" opacity=".027"/>
<path d="m330.5 374.5c1.333 0.667 1.333 0.667 0 0z" fill="#656665" opacity=".027"/>
<path d="m332.5 374.5c1.333 0.667 1.333 0.667 0 0z" fill="#656665" opacity=".027"/>
<path d="m334.5 374.5c1.333 0.667 1.333 0.667 0 0z" fill="#656665" opacity=".027"/>
<path d="m336.5 374.5c1.333 0.667 1.333 0.667 0 0z" fill="#656665" opacity=".027"/>
<path d="m338.5 374.5c1.333 0.667 1.333 0.667 0 0z" fill="#656665" opacity=".027"/>
<path d="m340.5 374.5c1.333 0.667 1.333 0.667 0 0z" fill="#656665" opacity=".027"/>
<path d="m342.5 374.5c1.333 0.667 1.333 0.667 0 0z" fill="#656665" opacity=".027"/>
<path d="m344.5 374.5c1.333 0.667 1.333 0.667 0 0z" fill="#656665" opacity=".027"/>
<path d="m346.5 374.5c1.333 0.667 1.333 0.667 0 0z" fill="#656665" opacity=".027"/>
<path d="m348.5 374.5c1.333 0.667 1.333 0.667 0 0z" fill="#656665" opacity=".027"/>
<path d="m350.5 374.5c1.333 0.667 1.333 0.667 0 0z" fill="#656665" opacity=".027"/>
<path d="m352.5 374.5c1.333 0.667 1.333 0.667 0 0z" fill="#656665" opacity=".027"/>
<path d="m354.5 374.5c1.333 0.667 1.333 0.667 0 0z" fill="#656665" opacity=".027"/>
<path d="m356.5 374.5c1.333 0.667 1.333 0.667 0 0z" fill="#656665" opacity=".027"/>
<path d="m358.5 374.5c1.333 0.667 1.333 0.667 0 0z" fill="#656665" opacity=".027"/>
<path d="m360.5 374.5c1.333 0.667 1.333 0.667 0 0z" fill="#656665" opacity=".027"/>
<path d="m362.5 374.5c1.333 0.667 1.333 0.667 0 0z" fill="#656665" opacity=".027"/>
<path d="m364.5 374.5c1.333 0.667 1.333 0.667 0 0z" fill="#656665" opacity=".027"/>
<path d="m366.5 374.5c1.333 0.667 1.333 0.667 0 0z" fill="#656665" opacity=".027"/>
<path d="m368.5 374.5c1.333 0.667 1.333 0.667 0 0z" fill="#656665" opacity=".027"/>
<path d="m370.5 374.5c1.333 0.667 1.333 0.667 0 0z" fill="#656665" opacity=".027"/>
<path d="m372.5 374.5c1.333 0.667 1.333 0.667 0 0z" fill="#656665" opacity=".027"/>
<path d="m374.5 374.5c1.333 0.667 1.333 0.667 0 0z" fill="#656665" opacity=".027"/>
<path d="m376.5 374.5c1.333 0.667 1.333 0.667 0 0z" fill="#656665" opacity=".027"/>
<path d="m378.5 374.5c1.333 0.667 1.333 0.667 0 0z" fill="#656665" opacity=".027"/>
<path d="m380.5 374.5c1.333 0.667 1.333 0.667 0 0z" fill="#656665" opacity=".027"/>
<path d="m382.5 374.5c1.333 0.667 1.333 0.667 0 0z" fill="#656665" opacity=".027"/>
<path d="m384.5 374.5c1.333 0.667 1.333 0.667 0 0z" fill="#656665" opacity=".027"/>
<path d="m386.5 374.5c1.333 0.667 1.333 0.667 0 0z" fill="#656665" opacity=".027"/>
<path d="m388.5 374.5c1.333 0.667 1.333 0.667 0 0z" fill="#656665" opacity=".027"/>
<path d="m390.5 374.5c1.333 0.667 1.333 0.667 0 0z" fill="#656665" opacity=".027"/>
<path d="m392.5 374.5c1.333 0.667 1.333 0.667 0 0z" fill="#656665" opacity=".027"/>
<path d="m394.5 374.5c1.333 0.667 1.333 0.667 0 0z" fill="#656665" opacity=".027"/>
<path d="m396.5 374.5c1.333 0.667 1.333 0.667 0 0z" fill="#656665" opacity=".027"/>
<path d="m398.5 374.5c1.333 0.667 1.333 0.667 0 0z" fill="#656665" opacity=".027"/>
<path d="m400.5 374.5c1.333 0.667 1.333 0.667 0 0z" fill="#656665" opacity=".027"/>
<path d="m402.5 374.5c1.333 0.667 1.333 0.667 0 0z" fill="#656665" opacity=".027"/>
<path d="m404.5 374.5c1.333 0.667 1.333 0.667 0 0z" fill="#656665" opacity=".027"/>
<path d="m406.5 374.5c1.333 0.667 1.333 0.667 0 0z" fill="#656665" opacity=".027"/>
<path d="m408.5 374.5c1.333 0.667 1.333 0.667 0 0z" fill="#656665" opacity=".027"/>
<path d="m410.5 374.5c1.333 0.667 1.333 0.667 0 0z" fill="#656665" opacity=".027"/>
<path d="m412.5 374.5c1.333 0.667 1.333 0.667 0 0z" fill="#656665" opacity=".027"/>
<path d="m414.5 374.5c1.333 0.667 1.333 0.667 0 0z" fill="#656665" opacity=".027"/>
<path d="m416.5 374.5c1.333 0.667 1.333 0.667 0 0z" fill="#656665" opacity=".027"/>
<path d="m419.5 374.5c1.333 0.667 1.333 0.667 0 0z" fill="#656665" opacity=".027"/>
<path d="m422.5 374.5c1.333 0.667 1.333 0.667 0 0z" fill="#656665" opacity=".027"/>
<path d="m425.5 374.5c1.333 0.667 1.333 0.667 0 0z" fill="#656665" opacity=".027"/>
<path d="m428.5 374.5c1.333 0.667 1.333 0.667 0 0z" fill="#656665" opacity=".027"/>
<path d="m431.5 374.5c1.333 0.667 1.333 0.667 0 0z" fill="#656665" opacity=".027"/>
<path d="m436.5 375.5c1.333 0.667 1.333 0.667 0 0z" fill="#656665" opacity=".027"/>
<path d="m309.5 381.5c1.333 0.667 1.333 0.667 0 0z" fill="#656665" opacity=".027"/>
<path d="m308.5 389.5c1.333 0.667 1.333 0.667 0 0z" fill="#656665" opacity=".027"/>
<path d="m301.5 371.5c-0.418 9.265-1.751 18.265-4 27 0.791-9.211 2.125-18.211 4-27z" fill="#a8a8a8" opacity=".541"/>
<path d="m307.5 395.5c1.333 0.667 1.333 0.667 0 0z" fill="#656665" opacity=".027"/>
<path d="m138.5 397.5c1.333 0.667 1.333 0.667 0 0z" fill="#656665" opacity=".027"/>
<path d="m306.5 401.5c1.333 0.667 1.333 0.667 0 0z" fill="#656665" opacity=".027"/>
<path d="m137.5 403.5c1.333 0.667 1.333 0.667 0 0z" fill="#656665" opacity=".027"/>
<path d="m170.5 401.5c0.08 3.281-0.587 6.281-2 9-0.08-3.281 0.587-6.281 2-9z" fill="#8f8e8d"/>
<path d="m136.5 409.5c1.333 0.667 1.333 0.667 0 0z" fill="#656665" opacity=".027"/>
<path d="m135.5 414.5c1.333 0.667 1.333 0.667 0 0z" fill="#656665" opacity=".027"/>
<path d="m135.5 420.5c-0.667-1.333-0.667-1.333 0 0z" fill="#656665" opacity=".027"/>
<path d="m302.5 420.5c1.333 0.667 1.333 0.667 0 0z" fill="#656665" opacity=".027"/>
<path d="m133.5 423.5c1.333 0.667 1.333 0.667 0 0z" fill="#656665" opacity=".027"/>
<path d="m133.5 428.5c-0.667-1.333-0.667-1.333 0 0z" fill="#656665" opacity=".027"/>
<path d="m132.5 432.5c-0.667-1.333-0.667-1.333 0 0z" fill="#656665" opacity=".027"/>
<path d="m131.5 435.5c-0.667-1.333-0.667-1.333 0 0z" fill="#656665" opacity=".027"/>
<path d="m129.5 442.5c-0.667-1.333-0.667-1.333 0 0z" fill="#656665" opacity=".027"/>
<path d="m128.5 445.5c-0.667-1.333-0.667-1.333 0 0z" fill="#656665" opacity=".027"/>
<path d="m127.5 448.5c-0.667-1.333-0.667-1.333 0 0z" fill="#656665" opacity=".027"/>
<path d="m126.5 452.5c-0.667-1.333-0.667-1.333 0 0z" fill="#656665" opacity=".027"/>
<path d="m124.5 455.5c1.333 0.667 1.333 0.667 0 0z" fill="#656665" opacity=".027"/>
<path d="m156.5 457.5c12.289 1.98 24.956 2.647 38 2h19 19c-25.495 0.998-51.161 1.331-77 1-0.237-1.291 0.096-2.291 1-3z" fill="#d6d2d0"/>
<path d="m124.5 467.5c1.333 0.667 1.333 0.667 0 0z" fill="#656665" opacity=".027"/>
<path d="m125.5 471.5c1.333 0.667 1.333 0.667 0 0z" fill="#656665" opacity=".027"/>
<path d="m280.5 474.5c1.333 0.667 1.333 0.667 0 0z" fill="#656665" opacity=".027"/>
<path d="m128.5 480.5c1.333 0.667 1.333 0.667 0 0z" fill="#656665" opacity=".027"/>
<path d="m274.5 482.5c1.333 0.667 1.333 0.667 0 0z" fill="#656665" opacity=".027"/>
<path d="m131.5 484.5c1.333 0.667 1.333 0.667 0 0z" fill="#656665" opacity=".027"/>
<path d="m133.5 486.5c1.333 0.667 1.333 0.667 0 0z" fill="#656665" opacity=".027"/>
<path d="m138.5 487.5c-0.667 0.667-0.667 0.667 0 0z" fill="#656665" opacity=".027"/>
<path d="m271.5 487.5c1.333 0.667 1.333 0.667 0 0z" fill="#656665" opacity=".027"/>
<path d="m267.5 488.5c1.333 0.667 1.333 0.667 0 0z" fill="#656665" opacity=".027"/>
<path d="m141.5 489.5c-0.667 0.667-0.667 0.667 0 0z" fill="#656665" opacity=".027"/>
<path d="m144.5 491.5c1.333 0.667 1.333 0.667 0 0z" fill="#656665" opacity=".027"/>
<path d="m262.5 491.5c1.333 0.667 1.333 0.667 0 0z" fill="#656665" opacity=".027"/>
<path d="m147.5 492.5c1.333 0.667 1.333 0.667 0 0z" fill="#656665" opacity=".027"/>
<path d="m257.5 492.5c1.333 0.667 1.333 0.667 0 0z" fill="#656665" opacity=".027"/>
<path d="m151.5 493.5c1.333 0.667 1.333 0.667 0 0z" fill="#656665" opacity=".027"/>
<path d="m154.5 493.5c-0.667 0.667-0.667 0.667 0 0z" fill="#656665" opacity=".027"/>
<path d="m159.5 493.5h1c-0.185 0.67-0.519 0.67-1 0z" fill="#656665" opacity=".027"/>
<path d="m161.5 493.5h1c-0.185 0.67-0.519 0.67-1 0z" fill="#656665" opacity=".027"/>
<path d="m164.5 493.5h1c-0.185 0.67-0.519 0.67-1 0z" fill="#656665" opacity=".027"/>
<path d="m167.5 493.5h1c-0.185 0.67-0.519 0.67-1 0z" fill="#656665" opacity=".027"/>
<path d="m195.5 493.5h1c-0.185 0.67-0.519 0.67-1 0z" fill="#656665" opacity=".027"/>
<path d="m198.5 493.5h1c-0.185 0.67-0.519 0.67-1 0z" fill="#656665" opacity=".027"/>
<path d="m200.5 493.5h1c-0.185 0.67-0.519 0.67-1 0z" fill="#656665" opacity=".027"/>
<path d="m251.5 493.5c1.333 0.667 1.333 0.667 0 0z" fill="#656665" opacity=".027"/>
<path d="m171.5 494.5c1.333 0.667 1.333 0.667 0 0z" fill="#656665" opacity=".027"/>
<path d="m174.5 494.5c1.333 0.667 1.333 0.667 0 0z" fill="#656665" opacity=".027"/>
<path d="m177.5 494.5c1.333 0.667 1.333 0.667 0 0z" fill="#656665" opacity=".027"/>
<path d="m180.5 494.5c1.333 0.667 1.333 0.667 0 0z" fill="#656665" opacity=".027"/>
<path d="m183.5 494.5c1.333 0.667 1.333 0.667 0 0z" fill="#656665" opacity=".027"/>
<path d="m186.5 494.5c1.333 0.667 1.333 0.667 0 0z" fill="#656665" opacity=".027"/>
<path d="m189.5 494.5c1.333 0.667 1.333 0.667 0 0z" fill="#656665" opacity=".027"/>
<path d="m192.5 494.5c1.333 0.667 1.333 0.667 0 0z" fill="#656665" opacity=".027"/>
<path d="m253.5 494.5c1.333 0.667 1.333 0.667 0 0z" fill="#656665" opacity=".027"/>
<path d="m169.5 495.5c1.333 0.667 1.333 0.667 0 0z" fill="#656665" opacity=".027"/>
<path d="m202.5 495.5c1.333 0.667 1.333 0.667 0 0z" fill="#656665" opacity=".027"/>
<path d="m205.5 495.5c1.333 0.667 1.333 0.667 0 0z" fill="#656665" opacity=".027"/>
<path d="m208.5 495.5c1.333 0.667 1.333 0.667 0 0z" fill="#656665" opacity=".027"/>
<path d="m211.5 495.5c1.333 0.667 1.333 0.667 0 0z" fill="#656665" opacity=".027"/>
<path d="m214.5 495.5c1.333 0.667 1.333 0.667 0 0z" fill="#656665" opacity=".027"/>
<path d="m217.5 495.5c1.333 0.667 1.333 0.667 0 0z" fill="#656665" opacity=".027"/>
<path d="m220.5 495.5c1.333 0.667 1.333 0.667 0 0z" fill="#656665" opacity=".027"/>
<path d="m223.5 495.5c1.333 0.667 1.333 0.667 0 0z" fill="#656665" opacity=".027"/>
<path d="m226.5 495.5c1.333 0.667 1.333 0.667 0 0z" fill="#656665" opacity=".027"/>
<path d="m229.5 495.5c1.333 0.667 1.333 0.667 0 0z" fill="#656665" opacity=".027"/>
<path d="m232.5 495.5c1.333 0.667 1.333 0.667 0 0z" fill="#656665" opacity=".027"/>
<path d="m235.5 495.5c1.333 0.667 1.333 0.667 0 0z" fill="#656665" opacity=".027"/>
<path d="m238.5 495.5c1.333 0.667 1.333 0.667 0 0z" fill="#656665" opacity=".027"/>
<path d="m241.5 495.5c1.333 0.667 1.333 0.667 0 0z" fill="#656665" opacity=".027"/>
<path d="m244.5 495.5c1.333 0.667 1.333 0.667 0 0z" fill="#656665" opacity=".027"/>
</svg>
