<svg version="1" xmlns="http://www.w3.org/2000/svg" width="682.667" height="682.667" viewBox="0 0 512.000000 512.000000"><path d="M194.8 40.1c-.6.4-1.7.5-2.5.2-.7-.3-1.3 0-1.3.7 0 1-.3 1-1.5 0-.8-.7-1.5-.8-1.5-.3s-1.8 1.6-4.1 2.3c-2.3.8-4.3 2-4.6 2.7-.3.7-.8 1.1-1.2.9-.3-.2-1.5.2-2.6 1-1 .8-1.5 1.4-.9 1.4.5 0 .4.4-.1.8-1.9 1.3-5.5 7-5.5 8.6 0 .9-.5 1.6-1 1.6-.7 0-.7.6-.2 1.7.5 1 .6 2.9.2 4.3-.7 2.7.3 6.3 3.3 12.5s13.5 12.4 22.2 13.1c1.7.1 4.2.4 5.8.7 1.5.3 2.7.2 2.7-.2 0-.3.8-.8 1.8-.9 2.6-.3 4.4-.8 7.5-2 1.6-.7 3.3-1.2 3.8-1.2s.9-.5.9-1c0-.6.5-1 1.1-1 1.4 0 4.9-3.9 4.9-5.3 0-.6.3-.7.7-.3.9.9 4.1-6.4 4.9-11.1.3-2.1.8-4.1 1-4.4.2-.3-.6-3.1-1.7-6.2C225 53.5 220.1 47 218 47c-.5 0-1-.5-1.2-1-.5-1.7-13.8-6.2-13.8-4.7 0 .8-.3.8-.9-.2-1-1.5-5.4-2.1-7.3-1zM174.2 130.2c-.9.9-1.2 28.7-1.2 118.9 0 77.7-.3 118-1 118.4-.9.6-.7 1.5 1.2 4.6.1.3-.2 1.2-.7 2-.6.8-1 4.3-1 7.9 0 3.6-.3 6.7-.7 7-.4.3-1 3.5-1.3 7-.5 6.1-1.1 10.5-1.5 10.5-.1 0-.4 2-.6 4.4-.2 2.4-.9 6.2-1.5 8.5-.5 2.2-1.2 5.9-1.5 8.1-.3 2.2-1 4.2-1.5 4.3-.5.2-.7.8-.4 1.2.3.5-.3 4.2-1.4 8.2-1.1 3.9-1.7 7.6-1.5 8 .3.4.1.8-.5.8-.5 0-1.2 1.7-1.6 3.8-.3 2.2-1.2 5-1.8 6.3-1.2 2.3-1.7 7-.7 6.7.3-.1 1.5.4 2.8 1.1 1.6.9 2.7.9 4.3.1 1.5-.8 2.4-.8 3.4 0 .9.8 1.5.8 2 0 .4-.7 1.2-.7 2.6 0 1.3.8 2.5.7 3.9 0 1.4-.8 2-.8 2 0 0 .7.6.7 2.1 0 1.2-.7 2.5-.8 3.2-.2 2.4 1.7 10.7-.5 10.7-2.9 0-.6.4-.8.8-.5.5.3 1.9-1.7 3.2-4.4 1.3-2.8 2.8-5 3.3-5 .6 0 .8-.3.4-.6-.3-.4.1-2.1 1-3.8 1-1.7 1.8-3.3 1.8-3.6.1-.3.7-1.9 1.4-3.5 2.3-5.1 2.9-6.9 4.2-11 .6-2.2 1.5-4.5 2-5.1.5-.6.6-1.4.2-1.7-.3-.4-.1-1.3.5-2 .7-.8.9-1.7.5-2-.3-.4-.1-.7.6-.7s1-.4.7-.9c-.3-.4-.1-2.3.5-4.2.5-1.9 1.2-4.9 1.5-6.8.3-1.9 1-4.5 1.4-5.7.6-1.5.5-2.4-.3-2.8-.9-.3-.8-.5.1-.5.7-.1 1-.6.7-1.1-.3-.6-.3-1 .2-1 .4 0 .9-1.5 1-3.3.1-1.7.5-5.7.9-8.7.5-3 .8-6.7.9-8.3 0-1.5.2-2.7.5-2.7s.7-5.3.8-11.7c.2-6.5.8-12.5 1.2-13.4.6-1 .5-2-.2-2.7-.8-.8-.9-1.2-.1-1.2.7 0 .8-1.2.3-3.5-.4-2-.4-3.8.1-4.1.5-.3.5-1.3-.1-2.5-.6-1.1-.7-1.9-.1-1.9.5 0 .6-1.4.1-3.5-.4-2-.4-3.8.1-4.1.5-.3.5-1.3-.1-2.5-.6-1-.7-1.9-.3-1.9.4 0 .6-8.8.3-19.6s-.2-19.8.3-20.1c.4-.2.2-1.3-.3-2.4-.6-1.1-.7-1.9-.1-1.9.5 0 .6-1.4.1-3.5-.4-2-.4-3.8.1-4.1.5-.3.5-1.3-.1-2.5-.6-1.1-.7-1.9-.1-1.9.5 0 .6-1.4.1-3.5-.4-2-.4-3.8.1-4.1.5-.3.5-1.3-.1-2.5-.6-1-.7-1.9-.2-1.9.5 0 .7-1.3.4-3-.6-3.9.5-8 2.1-8 .6 0 6.5 5.4 13 12 6.6 6.6 12.3 12 12.8 12s.9.6.9 1.4c0 .8.9 1.8 2 2.1 1.1.3 2 1 2 1.4 0 1.1 12 13.1 13.1 13.1.5 0 .9.8.9 1.7 0 .9.3 1.4.6 1.1.3-.3 2.4 1.5 4.7 4 6.7 7.3 8.7 9.2 9.7 9.2.6 0 1 .4 1 .8 0 .8 25.9 27.1 35.8 36.4l5.1 4.8h27.6c21.8 0 27.7-.3 28.1-1.3.5-1.3-24-26.7-25.7-26.7-.5 0-.9-.4-.9-.9 0-1.2-5.9-7.1-7.1-7.1-.5 0-.9-.4-.9-.9 0-1.2-24.1-25.1-25.3-25.1-.6 0-.8-.3-.4-.6.7-.8-1.7-3.4-3.2-3.4-.6 0-1.1-.5-1.1-1.1 0-1.1-6-6.9-7.2-6.9-.5 0-.8-.4-.8-.9 0-1.1-14-15.1-15.2-15.1-.4 0-.8-.4-.8-.9 0-1.1-16-17.1-17.1-17.1-.5 0-.9-.4-.9-.8 0-.5-2.1-3-4.6-5.6-4.9-5.2-5-4.8.9-10.7 1.5-1.5 2.7-2.6 2.7-2.3 0 .4.9-.4 8.4-7.4 2.5-2.4 4.6-4.1 4.6-3.8 0 .3 2.4-1.8 5.3-4.5 10.1-9.7 11.4-10.9 12-10.9.3 0 2-1.5 3.9-3.3 1.8-1.7 5.8-5.4 8.8-8 3-2.7 7.4-6.6 9.8-8.8 2.3-2.1 4.4-3.9 4.7-3.9.2 0 2.2-1.8 4.4-4s4.2-4 4.5-4c.2 0 1.9-1.5 3.8-3.3 4.8-4.5 9.9-8.9 12.8-10.9 1.4-1 2.1-1.8 1.6-1.8-.8 0 3.5-3.6 8.3-7 2.7-1.9 2.7-3.8-.2-4.5-1.2-.3-13.7-.5-27.8-.3l-25.5.3-3.1 3c-4.3 4.1-11.3 10.4-15.2 13.7-1.8 1.6-2.9 2.8-2.5 2.8.5.1-.3.8-1.8 1.6-1.6.8-2.8 2-2.8 2.6 0 .6-.3.9-.6.5-.4-.3-2 .9-3.7 2.8-1.7 1.9-3.6 3.5-4.3 3.5-.7 0-1.5.9-1.9 1.9-.3 1.1-1.4 2.3-2.5 2.6-1 .3-2.1 1.2-2.4 2-.3.8-1.3 1.5-2.1 1.5-.9 0-1.3.4-1 1 .3.5.2 1-.3 1s-3.4 2.5-6.5 5.5c-3.2 3-5.7 5.2-5.7 4.9 0-.3-1.3 1-3 2.8-1.6 1.8-3 3-3 2.6 0-.3-2.2 1.7-5 4.5-2.7 2.8-5 4.8-5 4.4 0-.3-2.1 1.4-4.7 4-2.7 2.5-6.1 5.8-7.8 7.4-3.4 3.3-5.1 3.7-5.9 1.1-.8-2.6-1-16.1-.3-16.8.3-.4.2-1.5-.4-2.5-.6-1.1-.6-1.9 0-1.9.5 0 .6-1.4.1-3.5-.4-2-.4-3.8.1-4.1.5-.3.5-1.3-.1-2.5-.6-1.1-.7-1.9-.1-1.9.5 0 .6-1.4.1-3.5-.4-2-.4-3.8.1-4.1.5-.3.5-1.3-.1-2.5-.8-1.4-.7-1.9.1-1.9.9 0 .9-.3 0-1.4-.8-1-.9-1.6-.1-2.1.7-.4.7-1.2 0-2.6-.6-1.1-.7-1.9-.1-1.9.5 0 .6-1.4.1-3.5-.4-2-.4-3.8.1-4.1.5-.3.5-1.3-.1-2.5-.6-1.1-.7-1.9-.1-1.9.5 0 .6-1.4.1-3.4-.4-1.9-.4-3.8.1-4.3s.2-1.8-.7-3.1c-1.5-2.2-1.9-2.2-23.8-2.2-15.9 0-22.5.3-23.4 1.2z"/></svg>