<?xml version="1.0" encoding="UTF-8"?>
<!DOCTYPE svg PUBLIC "-//W3C//DTD SVG 1.1//EN" "http://www.w3.org/Graphics/SVG/1.1/DTD/svg11.dtd">
<svg xmlns="http://www.w3.org/2000/svg" version="1.1" width="512px" height="512px" style="shape-rendering:geometricPrecision; text-rendering:geometricPrecision; image-rendering:optimizeQuality; fill-rule:evenodd; clip-rule:evenodd" xmlns:xlink="http://www.w3.org/1999/xlink">
<g><path style="opacity:0.118" fill="#686868" d="M 290.5,28.5 C 291.29,29.4013 292.29,30.0679 293.5,30.5C 294.29,31.4013 295.29,32.0679 296.5,32.5C 298.142,33.803 299.809,35.1363 301.5,36.5C 301.833,37.5 302.5,38.1667 303.5,38.5C 305.657,41.6316 307.99,44.6316 310.5,47.5C 312.926,53.117 314.926,58.7837 316.5,64.5C 317.387,70.1454 317.554,75.812 317,81.5C 315.57,89.4318 313.57,97.0985 311,104.5C 351.017,104.638 389.017,104.638 425,104.5C 427.972,106.179 430.639,106.512 433,105.5C 433.333,106.167 433.667,106.833 434,107.5C 435.333,107.5 436.667,107.5 438,107.5C 439.615,108.386 441.115,109.386 442.5,110.5C 443.29,111.401 444.29,112.068 445.5,112.5C 445.833,113.5 446.5,114.167 447.5,114.5C 448.167,115.833 449.167,116.833 450.5,117.5C 451.853,120.205 453.186,122.872 454.5,125.5C 456.778,135.731 455.445,145.398 450.5,154.5C 449.512,155.795 448.512,157.128 447.5,158.5C 445.833,159.5 444.5,160.833 443.5,162.5C 440.94,164.273 438.607,166.273 436.5,168.5C 433.474,171.195 430.474,173.862 427.5,176.5C 425.833,177.5 424.5,178.833 423.5,180.5C 420.553,181.781 418.219,183.781 416.5,186.5C 414.611,187.604 412.945,188.937 411.5,190.5C 409.833,191.5 408.5,192.833 407.5,194.5C 405.246,195.124 403.579,196.457 402.5,198.5C 400.833,199.5 399.5,200.833 398.5,202.5C 396.611,203.604 394.945,204.937 393.5,206.5C 391.833,207.5 390.5,208.833 389.5,210.5C 386.553,211.781 384.219,213.781 382.5,216.5C 380.611,217.604 378.945,218.937 377.5,220.5C 375.833,221.5 374.5,222.833 373.5,224.5C 370.779,225.696 369.613,227.696 370,230.5C 400.062,260.395 429.895,290.395 459.5,320.5C 462.585,324.121 464.918,328.121 466.5,332.5C 468.749,342.403 467.415,351.737 462.5,360.5C 460.167,363.5 457.5,366.167 454.5,368.5C 448.22,371.317 441.886,372.984 435.5,373.5C 435.167,372.167 434.833,372.167 434.5,373.5C 396.5,373.5 358.5,373.5 320.5,373.5C 318.169,372.683 315.669,372.016 313,371.5C 312.235,371.57 311.735,371.903 311.5,372.5C 310.883,372.611 310.383,372.944 310,373.5C 307.258,402.134 300.591,429.801 290,456.5C 287.075,462.685 283.909,468.685 280.5,474.5C 278.512,477.128 276.512,479.795 274.5,482.5C 272.142,484.529 269.808,486.529 267.5,488.5C 262.067,490.775 256.401,492.275 250.5,493C 232.561,492.942 216.228,493.108 201.5,493.5C 201.167,492.167 200.833,492.167 200.5,493.5C 200.167,493.5 199.833,493.5 199.5,493.5C 199.167,492.167 198.833,492.167 198.5,493.5C 197.833,493.5 197.167,493.5 196.5,493.5C 196.167,492.167 195.833,492.167 195.5,493.5C 186.5,493.5 177.5,493.5 168.5,493.5C 168.167,492.167 167.833,492.167 167.5,493.5C 166.833,493.5 166.167,493.5 165.5,493.5C 165.167,492.167 164.833,492.167 164.5,493.5C 163.833,493.5 163.167,493.5 162.5,493.5C 162.167,492.167 161.833,492.167 161.5,493.5C 161.167,493.5 160.833,493.5 160.5,493.5C 160.167,492.167 159.833,492.167 159.5,493.5C 157.833,493.5 156.167,493.5 154.5,493.5C 150.267,492.203 145.933,490.869 141.5,489.5C 140.71,488.599 139.71,487.932 138.5,487.5C 133.366,484.091 130.033,479.757 128.5,474.5C 125.413,467.388 124.747,460.054 126.5,452.5C 127.434,451.432 127.768,450.099 127.5,448.5C 128.404,447.791 128.737,446.791 128.5,445.5C 129.404,444.791 129.737,443.791 129.5,442.5C 131.402,440.359 132.069,438.026 131.5,435.5C 132.404,434.791 132.737,433.791 132.5,432.5C 133.434,431.432 133.768,430.099 133.5,428.5C 135.04,426.162 135.706,423.495 135.5,420.5C 138.452,408.585 140.785,396.751 142.5,385C 142.21,381.724 142.21,378.224 142.5,374.5C 143.304,369.852 143.971,364.852 144.5,359.5C 144.48,284.562 144.48,209.395 144.5,134C 146.273,129.951 147.606,126.118 148.5,122.5C 149.308,120.78 150.308,119.113 151.5,117.5C 153.138,116.295 153.471,114.962 152.5,113.5C 152.34,111.847 151.674,110.514 150.5,109.5C 149.488,108.128 148.488,106.795 147.5,105.5C 147.011,104.005 146.345,102.671 145.5,101.5C 145.011,100.005 144.345,98.6715 143.5,97.5C 141.639,90.3571 139.972,83.1904 138.5,76C 140.021,69.5638 141.354,63.0638 142.5,56.5C 143.404,55.791 143.737,54.791 143.5,53.5C 144.338,53.1583 144.672,52.4916 144.5,51.5C 145.338,51.1583 145.672,50.4916 145.5,49.5C 146.338,49.1583 146.672,48.4916 146.5,47.5C 149.093,44.7486 151.093,42.082 152.5,39.5C 153.5,39.1667 154.167,38.5 154.5,37.5C 155.5,37.1667 156.167,36.5 156.5,35.5C 157.846,33.1213 159.513,31.788 161.5,31.5C 162.71,31.0679 163.71,30.4013 164.5,29.5C 167.009,27.6564 169.509,25.9897 172,24.5C 174.055,24.848 176.055,24.1814 178,22.5C 180.26,22.3267 182.593,22.3267 185,22.5C 185.853,20.8753 186.853,20.5419 188,21.5C 189.333,20.8333 190.667,20.1667 192,19.5C 216.866,20.4357 240.866,20.4357 264,19.5C 265.333,20.1667 266.667,20.8333 268,21.5C 270,21.5 272,21.5 274,21.5C 276.088,22.3081 278.088,23.3081 280,24.5C 280.333,24.1667 280.667,23.8333 281,23.5C 282.667,24.5 284.333,25.5 286,26.5C 286.333,26.1667 286.667,25.8333 287,25.5C 287.72,27.0557 288.887,28.0557 290.5,28.5 Z"/></g>
<g><path style="opacity:1" fill="#fcfcfc" d="M 301.5,371.5 C 299.625,380.289 298.291,389.289 297.5,398.5C 293.482,426.395 283.482,451.895 267.5,475C 263.817,478.34 259.484,480.34 254.5,481C 221.513,482.476 188.513,482.809 155.5,482C 139.879,479.639 132.712,470.472 134,454.5C 143.581,425.927 149.581,396.594 152,366.5C 153.261,287.843 153.928,209.176 154,130.5C 155.142,121.33 159.975,115.163 168.5,112C 148.365,96.0558 142.865,75.8891 152,51.5C 162.778,33.9428 178.611,24.9428 199.5,24.5C 218.836,25.833 238.169,25.833 257.5,24.5C 273.749,25.1853 287.582,31.1853 299,42.5C 313.617,64.2703 312.617,85.2703 296,105.5C 293.697,107.393 291.53,109.393 289.5,111.5C 291.126,112.99 292.792,114.49 294.5,116C 298.354,113.592 302.687,111.925 307.5,111C 347.833,110.333 388.167,110.333 428.5,111C 440.889,113.101 447.556,120.434 448.5,133C 447.115,136.679 446.282,140.512 446,144.5C 416.393,171.599 386.56,198.599 356.5,225.5C 388.82,258.32 421.32,290.986 454,323.5C 463.55,337.697 461.383,349.864 447.5,360C 444.471,360.539 441.471,361.206 438.5,362C 399.167,362.667 359.833,362.667 320.5,362C 313.296,361.315 307.462,358.149 303,352.5C 301.812,358.778 301.312,365.112 301.5,371.5 Z"/></g>
<g><path style="opacity:0.027" fill="#656665" d="M 290.5,27.5 C 291.833,28.1667 291.833,28.1667 290.5,27.5 Z"/></g>
<g><path style="opacity:0.027" fill="#656665" d="M 164.5,29.5 C 163.833,28.1667 163.833,28.1667 164.5,29.5 Z"/></g>
<g><path style="opacity:0.027" fill="#656665" d="M 293.5,29.5 C 294.833,30.1667 294.833,30.1667 293.5,29.5 Z"/></g>
<g><path style="opacity:0.027" fill="#656665" d="M 161.5,31.5 C 160.833,30.1667 160.833,30.1667 161.5,31.5 Z"/></g>
<g><path style="opacity:0.027" fill="#656665" d="M 296.5,31.5 C 297.833,32.1667 297.833,32.1667 296.5,31.5 Z"/></g>
<g><path style="opacity:0.027" fill="#656665" d="M 156.5,35.5 C 155.833,34.1667 155.833,34.1667 156.5,35.5 Z"/></g>
<g><path style="opacity:0.027" fill="#656665" d="M 301.5,35.5 C 302.833,36.1667 302.833,36.1667 301.5,35.5 Z"/></g>
<g><path style="opacity:0.027" fill="#656665" d="M 154.5,37.5 C 153.833,36.1667 153.833,36.1667 154.5,37.5 Z"/></g>
<g><path style="opacity:0.027" fill="#656665" d="M 303.5,37.5 C 304.833,38.1667 304.833,38.1667 303.5,37.5 Z"/></g>
<g><path style="opacity:0.027" fill="#656665" d="M 152.5,39.5 C 151.833,38.1667 151.833,38.1667 152.5,39.5 Z"/></g>
<g><path style="opacity:0.027" fill="#656665" d="M 146.5,47.5 C 145.833,46.1667 145.833,46.1667 146.5,47.5 Z"/></g>
<g><path style="opacity:0.027" fill="#656665" d="M 310.5,46.5 C 311.833,47.1667 311.833,47.1667 310.5,46.5 Z"/></g>
<g><path style="opacity:0.027" fill="#656665" d="M 145.5,49.5 C 144.833,48.1667 144.833,48.1667 145.5,49.5 Z"/></g>
<g><path style="opacity:1" fill="#616060" d="M 211.5,48.5 C 211.5,48.8333 211.5,49.1667 211.5,49.5C 203.5,48.1667 195.5,48.1667 187.5,49.5C 191.203,47.945 195.203,47.2783 199.5,47.5C 203.535,47.6126 207.535,47.9459 211.5,48.5 Z"/></g>
<g><path style="opacity:1" fill="#040303" d="M 211.5,49.5 C 228.943,57.06 233.443,69.3934 225,86.5C 221.469,91.205 216.969,94.5383 211.5,96.5C 206.537,97.254 201.537,97.5874 196.5,97.5C 184.03,97.6175 175.53,91.9508 171,80.5C 168.337,69.9825 170.837,61.1492 178.5,54C 181.286,51.9404 184.286,50.4404 187.5,49.5C 195.5,48.1667 203.5,48.1667 211.5,49.5 Z"/></g>
<g><path style="opacity:1" fill="#fa1c06" d="M 229.5,48.5 C 248.766,56.9101 253.266,70.2434 243,88.5C 239.141,92.5371 234.641,95.5371 229.5,97.5C 223.349,98.6643 217.349,98.6643 211.5,97.5C 211.5,97.1667 211.5,96.8333 211.5,96.5C 216.969,94.5383 221.469,91.205 225,86.5C 233.443,69.3934 228.943,57.06 211.5,49.5C 211.5,49.1667 211.5,48.8333 211.5,48.5C 217.349,47.3357 223.349,47.3357 229.5,48.5 Z"/></g>
<g><path style="opacity:1" fill="#fcfc1a" d="M 229.5,48.5 C 235.704,47.2299 242.037,47.2299 248.5,48.5C 267.042,55.6152 272.209,68.2818 264,86.5C 260.448,91.2328 255.948,94.5662 250.5,96.5C 243.491,98.6781 236.491,99.0114 229.5,97.5C 234.641,95.5371 239.141,92.5371 243,88.5C 253.266,70.2434 248.766,56.9101 229.5,48.5 Z"/></g>
<g><path style="opacity:1" fill="#aeedfc" d="M 248.5,48.5 C 257.78,46.4839 266.78,47.6506 275.5,52C 289.707,63.5977 291.041,76.5977 279.5,91C 271.279,96.3053 262.279,98.6387 252.5,98C 251.584,97.7216 250.918,97.2216 250.5,96.5C 255.948,94.5662 260.448,91.2328 264,86.5C 272.209,68.2818 267.042,55.6152 248.5,48.5 Z"/></g>
<g><path style="opacity:0.027" fill="#656665" d="M 144.5,51.5 C 143.833,50.1667 143.833,50.1667 144.5,51.5 Z"/></g>
<g><path style="opacity:0.027" fill="#656665" d="M 143.5,53.5 C 142.833,52.1667 142.833,52.1667 143.5,53.5 Z"/></g>
<g><path style="opacity:0.027" fill="#656665" d="M 142.5,56.5 C 141.833,55.1667 141.833,55.1667 142.5,56.5 Z"/></g>
<g><path style="opacity:0.027" fill="#656665" d="M 140.5,58.5 C 141.833,59.1667 141.833,59.1667 140.5,58.5 Z"/></g>
<g><path style="opacity:0.027" fill="#656665" d="M 139.5,62.5 C 140.833,63.1667 140.833,63.1667 139.5,62.5 Z"/></g>
<g><path style="opacity:0.027" fill="#656665" d="M 316.5,63.5 C 317.833,64.1667 317.833,64.1667 316.5,63.5 Z"/></g>
<g><path style="opacity:0.027" fill="#656665" d="M 138.5,67.5 C 139.833,68.1667 139.833,68.1667 138.5,67.5 Z"/></g>
<g><path style="opacity:0.027" fill="#656665" d="M 138.5,83.5 C 139.833,84.1667 139.833,84.1667 138.5,83.5 Z"/></g>
<g><path style="opacity:0.027" fill="#656665" d="M 139.5,88.5 C 140.833,89.1667 140.833,89.1667 139.5,88.5 Z"/></g>
<g><path style="opacity:0.027" fill="#656665" d="M 140.5,92.5 C 141.833,93.1667 141.833,93.1667 140.5,92.5 Z"/></g>
<g><path style="opacity:0.027" fill="#656665" d="M 143.5,97.5 C 142.833,98.1667 142.833,98.1667 143.5,97.5 Z"/></g>
<g><path style="opacity:1" fill="#88827f" d="M 211.5,96.5 C 211.5,96.8333 211.5,97.1667 211.5,97.5C 206.355,98.6907 201.355,98.6907 196.5,97.5C 201.537,97.5874 206.537,97.254 211.5,96.5 Z"/></g>
<g><path style="opacity:0.027" fill="#656665" d="M 312.5,100.5 C 313.833,101.167 313.833,101.167 312.5,100.5 Z"/></g>
<g><path style="opacity:0.027" fill="#656665" d="M 145.5,101.5 C 144.833,102.167 144.833,102.167 145.5,101.5 Z"/></g>
<g><path style="opacity:0.027" fill="#656665" d="M 314.5,103.5 C 315.833,104.167 315.833,104.167 314.5,103.5 Z"/></g>
<g><path style="opacity:0.027" fill="#656665" d="M 147.5,105.5 C 146.833,106.167 146.833,106.167 147.5,105.5 Z"/></g>
<g><path style="opacity:0.027" fill="#656665" d="M 150.5,109.5 C 149.833,110.167 149.833,110.167 150.5,109.5 Z"/></g>
<g><path style="opacity:0.027" fill="#656665" d="M 442.5,109.5 C 443.833,110.167 443.833,110.167 442.5,109.5 Z"/></g>
<g><path style="opacity:0.027" fill="#656665" d="M 445.5,111.5 C 446.833,112.167 446.833,112.167 445.5,111.5 Z"/></g>
<g><path style="opacity:0.027" fill="#656665" d="M 152.5,113.5 C 151.833,114.167 151.833,114.167 152.5,113.5 Z"/></g>
<g><path style="opacity:0.027" fill="#656665" d="M 447.5,113.5 C 448.833,114.167 448.833,114.167 447.5,113.5 Z"/></g>
<g><path style="opacity:0.027" fill="#656665" d="M 151.5,117.5 C 150.833,116.167 150.833,116.167 151.5,117.5 Z"/></g>
<g><path style="opacity:0.027" fill="#656665" d="M 450.5,116.5 C 451.833,117.167 451.833,117.167 450.5,116.5 Z"/></g>
<g><path style="opacity:0.027" fill="#656665" d="M 148.5,122.5 C 147.833,121.167 147.833,121.167 148.5,122.5 Z"/></g>
<g><path style="opacity:0.027" fill="#656665" d="M 454.5,124.5 C 455.833,125.167 455.833,125.167 454.5,124.5 Z"/></g>
<g><path style="opacity:0.027" fill="#656665" d="M 144.5,129.5 C 145.833,130.167 145.833,130.167 144.5,129.5 Z"/></g>
<g><path style="opacity:1" fill="#e68162" d="M 368.5,133.5 C 368.5,133.167 368.5,132.833 368.5,132.5C 374.833,132.5 381.167,132.5 387.5,132.5C 387.672,133.492 387.338,134.158 386.5,134.5C 380.69,133.51 374.69,133.177 368.5,133.5 Z"/></g>
<g><path style="opacity:1" fill="#373635" d="M 222.5,132.5 C 222.5,132.833 222.5,133.167 222.5,133.5C 207.167,133.5 191.833,133.5 176.5,133.5C 176.833,204.002 176.499,274.335 175.5,344.5C 175.5,273.833 175.5,203.167 175.5,132.5C 191.167,132.5 206.833,132.5 222.5,132.5 Z"/></g>
<g><path style="opacity:1" fill="#010101" d="M 368.5,132.5 C 368.5,132.833 368.5,133.167 368.5,133.5C 333.864,163.468 299.531,193.801 265.5,224.5C 303.624,262.956 341.624,301.289 379.5,339.5C 360.164,339.667 340.83,339.5 321.5,339C 307.632,324.965 293.632,311.131 279.5,297.5C 273.833,291.167 267.833,285.167 261.5,279.5C 261.167,278.5 260.5,277.833 259.5,277.5C 254.167,271.5 248.5,265.833 242.5,260.5C 237.064,254.562 231.397,248.729 225.5,243C 224.552,242.517 223.552,242.351 222.5,242.5C 222.897,287.515 222.397,332.515 221,377.5C 218.915,392.341 215.915,407.008 212,421.5C 206.976,434.547 201.143,447.214 194.5,459.5C 181.456,460.147 168.789,459.48 156.5,457.5C 161.905,442.212 165.905,426.545 168.5,410.5C 169.913,407.781 170.58,404.781 170.5,401.5C 173.421,382.62 175.088,363.62 175.5,344.5C 176.499,274.335 176.833,204.002 176.5,133.5C 191.833,133.5 207.167,133.5 222.5,133.5C 222.5,144.167 222.5,154.833 222.5,165.5C 222.167,180.848 222.501,196.181 223.5,211.5C 224.107,211.376 224.44,211.043 224.5,210.5C 230.5,204.833 236.5,199.167 242.5,193.5C 248.803,188.532 254.803,183.198 260.5,177.5C 261.167,177.5 261.5,177.167 261.5,176.5C 268.122,170.886 274.789,165.219 281.5,159.5C 291.121,150.884 300.788,142.217 310.5,133.5C 329.822,132.5 349.155,132.167 368.5,132.5 Z"/></g>
<g><path style="opacity:1" fill="#b13622" d="M 222.5,132.5 C 229.167,132.5 235.833,132.5 242.5,132.5C 242.5,132.833 242.5,133.167 242.5,133.5C 236.167,133.5 229.833,133.5 223.5,133.5C 223.5,144.167 223.5,154.833 223.5,165.5C 223.167,165.5 222.833,165.5 222.5,165.5C 222.5,154.833 222.5,144.167 222.5,133.5C 222.5,133.167 222.5,132.833 222.5,132.5 Z"/></g>
<g><path style="opacity:1" fill="#fc1000" d="M 242.5,133.5 C 242.5,153.5 242.5,173.5 242.5,193.5C 236.5,199.167 230.5,204.833 224.5,210.5C 223.504,195.676 223.171,180.676 223.5,165.5C 223.5,154.833 223.5,144.167 223.5,133.5C 229.833,133.5 236.167,133.5 242.5,133.5 Z"/></g>
<g><path style="opacity:1" fill="#fdfc00" d="M 242.5,133.5 C 248.5,133.5 254.5,133.5 260.5,133.5C 260.5,148.167 260.5,162.833 260.5,177.5C 254.803,183.198 248.803,188.532 242.5,193.5C 242.5,173.5 242.5,153.5 242.5,133.5 Z"/></g>
<g><path style="opacity:1" fill="#ebf642" d="M 242.5,133.5 C 242.5,133.167 242.5,132.833 242.5,132.5C 248.833,132.5 255.167,132.5 261.5,132.5C 261.5,147.167 261.5,161.833 261.5,176.5C 261.5,177.167 261.167,177.5 260.5,177.5C 260.5,162.833 260.5,148.167 260.5,133.5C 254.5,133.5 248.5,133.5 242.5,133.5 Z"/></g>
<g><path style="opacity:1" fill="#abebfc" d="M 261.5,132.5 C 267.833,132.5 274.167,132.5 280.5,132.5C 280.173,141.682 280.507,150.682 281.5,159.5C 274.789,165.219 268.122,170.886 261.5,176.5C 261.5,161.833 261.5,147.167 261.5,132.5 Z"/></g>
<g><path style="opacity:1" fill="#f91001" d="M 368.5,133.5 C 374.69,133.177 380.69,133.51 386.5,134.5C 352.232,163.764 318.566,193.764 285.5,224.5C 323.521,262.854 361.521,301.188 399.5,339.5C 392.833,339.5 386.167,339.5 379.5,339.5C 341.624,301.289 303.624,262.956 265.5,224.5C 299.531,193.801 333.864,163.468 368.5,133.5 Z"/></g>
<g><path style="opacity:1" fill="#fdfc0b" d="M 387.5,132.5 C 393.5,132.5 399.5,132.5 405.5,132.5C 406.598,133.397 406.598,134.23 405.5,135C 371.417,164.373 337.75,194.206 304.5,224.5C 342.188,262.521 379.854,300.521 417.5,338.5C 411.69,339.49 405.69,339.823 399.5,339.5C 361.521,301.188 323.521,262.854 285.5,224.5C 318.566,193.764 352.232,163.764 386.5,134.5C 387.338,134.158 387.672,133.492 387.5,132.5 Z"/></g>
<g><path style="opacity:1" fill="#acecfc" d="M 405.5,132.5 C 412.2,132.17 418.866,132.503 425.5,133.5C 391.449,163.891 357.449,194.224 323.5,224.5C 361.32,262.82 399.32,300.986 437.5,339C 431.175,339.5 424.842,339.666 418.5,339.5C 418.5,338.833 418.167,338.5 417.5,338.5C 379.854,300.521 342.188,262.521 304.5,224.5C 337.75,194.206 371.417,164.373 405.5,135C 406.598,134.23 406.598,133.397 405.5,132.5 Z"/></g>
<g><path style="opacity:0.027" fill="#656665" d="M 456.5,133.5 C 457.833,134.167 457.833,134.167 456.5,133.5 Z"/></g>
<g><path style="opacity:0.027" fill="#656665" d="M 456.5,135.5 C 457.833,136.167 457.833,136.167 456.5,135.5 Z"/></g>
<g><path style="opacity:0.027" fill="#656665" d="M 143.5,136.5 C 144.833,137.167 144.833,137.167 143.5,136.5 Z"/></g>
<g><path style="opacity:0.027" fill="#656665" d="M 456.5,137.5 C 457.833,138.167 457.833,138.167 456.5,137.5 Z"/></g>
<g><path style="opacity:0.027" fill="#656665" d="M 456.5,139.5 C 457.833,140.167 457.833,140.167 456.5,139.5 Z"/></g>
<g><path style="opacity:0.027" fill="#656665" d="M 450.5,154.5 C 451.833,155.167 451.833,155.167 450.5,154.5 Z"/></g>
<g><path style="opacity:0.027" fill="#656665" d="M 447.5,158.5 C 448.833,159.167 448.833,159.167 447.5,158.5 Z"/></g>
<g><path style="opacity:0.027" fill="#656665" d="M 443.5,162.5 C 444.833,163.167 444.833,163.167 443.5,162.5 Z"/></g>
<g><path style="opacity:1" fill="#741111" d="M 222.5,165.5 C 222.833,165.5 223.167,165.5 223.5,165.5C 223.171,180.676 223.504,195.676 224.5,210.5C 224.44,211.043 224.107,211.376 223.5,211.5C 222.501,196.181 222.167,180.848 222.5,165.5 Z"/></g>
<g><path style="opacity:0.027" fill="#656665" d="M 436.5,168.5 C 437.833,169.167 437.833,169.167 436.5,168.5 Z"/></g>
<g><path style="opacity:0.027" fill="#656665" d="M 427.5,176.5 C 428.833,177.167 428.833,177.167 427.5,176.5 Z"/></g>
<g><path style="opacity:0.027" fill="#656665" d="M 423.5,180.5 C 424.833,181.167 424.833,181.167 423.5,180.5 Z"/></g>
<g><path style="opacity:0.027" fill="#656665" d="M 419.5,184.5 C 420.833,185.167 420.833,185.167 419.5,184.5 Z"/></g>
<g><path style="opacity:0.027" fill="#656665" d="M 416.5,186.5 C 417.833,187.167 417.833,187.167 416.5,186.5 Z"/></g>
<g><path style="opacity:0.027" fill="#656665" d="M 411.5,190.5 C 412.833,191.167 412.833,191.167 411.5,190.5 Z"/></g>
<g><path style="opacity:0.027" fill="#656665" d="M 407.5,194.5 C 408.833,195.167 408.833,195.167 407.5,194.5 Z"/></g>
<g><path style="opacity:0.027" fill="#656665" d="M 402.5,198.5 C 403.833,199.167 403.833,199.167 402.5,198.5 Z"/></g>
<g><path style="opacity:0.027" fill="#656665" d="M 398.5,202.5 C 399.833,203.167 399.833,203.167 398.5,202.5 Z"/></g>
<g><path style="opacity:0.027" fill="#656665" d="M 393.5,206.5 C 394.833,207.167 394.833,207.167 393.5,206.5 Z"/></g>
<g><path style="opacity:0.027" fill="#656665" d="M 389.5,210.5 C 390.833,211.167 390.833,211.167 389.5,210.5 Z"/></g>
<g><path style="opacity:0.027" fill="#656665" d="M 385.5,214.5 C 386.833,215.167 386.833,215.167 385.5,214.5 Z"/></g>
<g><path style="opacity:0.027" fill="#656665" d="M 382.5,216.5 C 383.833,217.167 383.833,217.167 382.5,216.5 Z"/></g>
<g><path style="opacity:0.027" fill="#656665" d="M 377.5,220.5 C 378.833,221.167 378.833,221.167 377.5,220.5 Z"/></g>
<g><path style="opacity:0.027" fill="#656665" d="M 373.5,224.5 C 374.833,225.167 374.833,225.167 373.5,224.5 Z"/></g>
<g><path style="opacity:0.027" fill="#656665" d="M 370.5,228.5 C 371.833,229.167 371.833,229.167 370.5,228.5 Z"/></g>
<g><path style="opacity:1" fill="#f90e01" d="M 242.5,260.5 C 242.5,276.5 242.5,292.5 242.5,308.5C 243.449,335.978 241.949,363.311 238,390.5C 234.275,415.182 226.108,438.182 213.5,459.5C 207.167,459.5 200.833,459.5 194.5,459.5C 201.143,447.214 206.976,434.547 212,421.5C 215.915,407.008 218.915,392.341 221,377.5C 222.397,332.515 222.897,287.515 222.5,242.5C 223.552,242.351 224.552,242.517 225.5,243C 231.397,248.729 237.064,254.562 242.5,260.5 Z"/></g>
<g><path style="opacity:1" fill="#e3d807" d="M 242.5,260.5 C 248.5,265.833 254.167,271.5 259.5,277.5C 253.925,273.433 248.759,268.766 244,263.5C 243.831,278.672 243.331,293.672 242.5,308.5C 242.5,292.5 242.5,276.5 242.5,260.5 Z"/></g>
<g><path style="opacity:1" fill="#fefd05" d="M 259.5,277.5 C 260.5,277.833 261.167,278.5 261.5,279.5C 261.667,304.502 261.5,329.502 261,354.5C 259.861,382.333 254.528,409.333 245,435.5C 241.601,443.968 237.434,451.968 232.5,459.5C 226.167,459.5 219.833,459.5 213.5,459.5C 226.108,438.182 234.275,415.182 238,390.5C 241.949,363.311 243.449,335.978 242.5,308.5C 243.331,293.672 243.831,278.672 244,263.5C 248.759,268.766 253.925,273.433 259.5,277.5 Z"/></g>
<g><path style="opacity:1" fill="#abecfd" d="M 261.5,279.5 C 267.833,285.167 273.833,291.167 279.5,297.5C 283.101,339.752 279.601,381.418 269,422.5C 264.708,435.361 258.874,447.528 251.5,459C 245.175,459.5 238.842,459.666 232.5,459.5C 237.434,451.968 241.601,443.968 245,435.5C 254.528,409.333 259.861,382.333 261,354.5C 261.5,329.502 261.667,304.502 261.5,279.5 Z"/></g>
<g><path style="opacity:0.027" fill="#656665" d="M 459.5,319.5 C 460.833,320.167 460.833,320.167 459.5,319.5 Z"/></g>
<g><path style="opacity:0.027" fill="#656665" d="M 466.5,331.5 C 467.833,332.167 467.833,332.167 466.5,331.5 Z"/></g>
<g><path style="opacity:1" fill="#f1f6ad" d="M 417.5,338.5 C 418.167,338.5 418.5,338.833 418.5,339.5C 412.167,340.833 405.833,340.833 399.5,339.5C 405.69,339.823 411.69,339.49 417.5,338.5 Z"/></g>
<g><path style="opacity:0.027" fill="#656665" d="M 468.5,341.5 C 469.833,342.167 469.833,342.167 468.5,341.5 Z"/></g>
<g><path style="opacity:0.027" fill="#656665" d="M 468.5,343.5 C 469.833,344.167 469.833,344.167 468.5,343.5 Z"/></g>
<g><path style="opacity:0.027" fill="#656665" d="M 468.5,345.5 C 469.833,346.167 469.833,346.167 468.5,345.5 Z"/></g>
<g><path style="opacity:0.027" fill="#656665" d="M 142.5,356.5 C 143.833,357.167 143.833,357.167 142.5,356.5 Z"/></g>
<g><path style="opacity:0.027" fill="#656665" d="M 142.5,358.5 C 143.833,359.167 143.833,359.167 142.5,358.5 Z"/></g>
<g><path style="opacity:0.027" fill="#656665" d="M 142.5,360.5 C 143.833,361.167 143.833,361.167 142.5,360.5 Z"/></g>
<g><path style="opacity:0.027" fill="#656665" d="M 462.5,360.5 C 463.833,361.167 463.833,361.167 462.5,360.5 Z"/></g>
<g><path style="opacity:0.027" fill="#656665" d="M 142.5,362.5 C 143.833,363.167 143.833,363.167 142.5,362.5 Z"/></g>
<g><path style="opacity:0.027" fill="#656665" d="M 454.5,368.5 C 455.833,369.167 455.833,369.167 454.5,368.5 Z"/></g>
<g><path style="opacity:0.027" fill="#656665" d="M 311.5,372.5 C 312.833,373.167 312.833,373.167 311.5,372.5 Z"/></g>
<g><path style="opacity:0.027" fill="#656665" d="M 445.5,372.5 C 446.833,373.167 446.833,373.167 445.5,372.5 Z"/></g>
<g><path style="opacity:0.027" fill="#656665" d="M 317.5,373.5 C 318.833,374.167 318.833,374.167 317.5,373.5 Z"/></g>
<g><path style="opacity:0.027" fill="#656665" d="M 320.5,373.5 C 319.833,374.167 319.833,374.167 320.5,373.5 Z"/></g>
<g><path style="opacity:0.027" fill="#656665" d="M 434.5,373.5 C 434.833,373.5 435.167,373.5 435.5,373.5C 435.315,374.17 434.981,374.17 434.5,373.5 Z"/></g>
<g><path style="opacity:0.027" fill="#656665" d="M 440.5,373.5 C 441.833,374.167 441.833,374.167 440.5,373.5 Z"/></g>
<g><path style="opacity:0.027" fill="#656665" d="M 142.5,374.5 C 141.833,375.167 141.833,375.167 142.5,374.5 Z"/></g>
<g><path style="opacity:0.027" fill="#656665" d="M 314.5,374.5 C 315.833,375.167 315.833,375.167 314.5,374.5 Z"/></g>
<g><path style="opacity:0.027" fill="#656665" d="M 324.5,374.5 C 325.833,375.167 325.833,375.167 324.5,374.5 Z"/></g>
<g><path style="opacity:0.027" fill="#656665" d="M 327.5,374.5 C 328.833,375.167 328.833,375.167 327.5,374.5 Z"/></g>
<g><path style="opacity:0.027" fill="#656665" d="M 330.5,374.5 C 331.833,375.167 331.833,375.167 330.5,374.5 Z"/></g>
<g><path style="opacity:0.027" fill="#656665" d="M 332.5,374.5 C 333.833,375.167 333.833,375.167 332.5,374.5 Z"/></g>
<g><path style="opacity:0.027" fill="#656665" d="M 334.5,374.5 C 335.833,375.167 335.833,375.167 334.5,374.5 Z"/></g>
<g><path style="opacity:0.027" fill="#656665" d="M 336.5,374.5 C 337.833,375.167 337.833,375.167 336.5,374.5 Z"/></g>
<g><path style="opacity:0.027" fill="#656665" d="M 338.5,374.5 C 339.833,375.167 339.833,375.167 338.5,374.5 Z"/></g>
<g><path style="opacity:0.027" fill="#656665" d="M 340.5,374.5 C 341.833,375.167 341.833,375.167 340.5,374.5 Z"/></g>
<g><path style="opacity:0.027" fill="#656665" d="M 342.5,374.5 C 343.833,375.167 343.833,375.167 342.5,374.5 Z"/></g>
<g><path style="opacity:0.027" fill="#656665" d="M 344.5,374.5 C 345.833,375.167 345.833,375.167 344.5,374.5 Z"/></g>
<g><path style="opacity:0.027" fill="#656665" d="M 346.5,374.5 C 347.833,375.167 347.833,375.167 346.5,374.5 Z"/></g>
<g><path style="opacity:0.027" fill="#656665" d="M 348.5,374.5 C 349.833,375.167 349.833,375.167 348.5,374.5 Z"/></g>
<g><path style="opacity:0.027" fill="#656665" d="M 350.5,374.5 C 351.833,375.167 351.833,375.167 350.5,374.5 Z"/></g>
<g><path style="opacity:0.027" fill="#656665" d="M 352.5,374.5 C 353.833,375.167 353.833,375.167 352.5,374.5 Z"/></g>
<g><path style="opacity:0.027" fill="#656665" d="M 354.5,374.5 C 355.833,375.167 355.833,375.167 354.5,374.5 Z"/></g>
<g><path style="opacity:0.027" fill="#656665" d="M 356.5,374.5 C 357.833,375.167 357.833,375.167 356.5,374.5 Z"/></g>
<g><path style="opacity:0.027" fill="#656665" d="M 358.5,374.5 C 359.833,375.167 359.833,375.167 358.5,374.5 Z"/></g>
<g><path style="opacity:0.027" fill="#656665" d="M 360.5,374.5 C 361.833,375.167 361.833,375.167 360.5,374.5 Z"/></g>
<g><path style="opacity:0.027" fill="#656665" d="M 362.5,374.5 C 363.833,375.167 363.833,375.167 362.5,374.5 Z"/></g>
<g><path style="opacity:0.027" fill="#656665" d="M 364.5,374.5 C 365.833,375.167 365.833,375.167 364.5,374.5 Z"/></g>
<g><path style="opacity:0.027" fill="#656665" d="M 366.5,374.5 C 367.833,375.167 367.833,375.167 366.5,374.5 Z"/></g>
<g><path style="opacity:0.027" fill="#656665" d="M 368.5,374.5 C 369.833,375.167 369.833,375.167 368.5,374.5 Z"/></g>
<g><path style="opacity:0.027" fill="#656665" d="M 370.5,374.5 C 371.833,375.167 371.833,375.167 370.5,374.5 Z"/></g>
<g><path style="opacity:0.027" fill="#656665" d="M 372.5,374.5 C 373.833,375.167 373.833,375.167 372.5,374.5 Z"/></g>
<g><path style="opacity:0.027" fill="#656665" d="M 374.5,374.5 C 375.833,375.167 375.833,375.167 374.5,374.5 Z"/></g>
<g><path style="opacity:0.027" fill="#656665" d="M 376.5,374.5 C 377.833,375.167 377.833,375.167 376.5,374.5 Z"/></g>
<g><path style="opacity:0.027" fill="#656665" d="M 378.5,374.5 C 379.833,375.167 379.833,375.167 378.5,374.5 Z"/></g>
<g><path style="opacity:0.027" fill="#656665" d="M 380.5,374.5 C 381.833,375.167 381.833,375.167 380.5,374.5 Z"/></g>
<g><path style="opacity:0.027" fill="#656665" d="M 382.5,374.5 C 383.833,375.167 383.833,375.167 382.5,374.5 Z"/></g>
<g><path style="opacity:0.027" fill="#656665" d="M 384.5,374.5 C 385.833,375.167 385.833,375.167 384.5,374.5 Z"/></g>
<g><path style="opacity:0.027" fill="#656665" d="M 386.5,374.5 C 387.833,375.167 387.833,375.167 386.5,374.5 Z"/></g>
<g><path style="opacity:0.027" fill="#656665" d="M 388.5,374.5 C 389.833,375.167 389.833,375.167 388.5,374.5 Z"/></g>
<g><path style="opacity:0.027" fill="#656665" d="M 390.5,374.5 C 391.833,375.167 391.833,375.167 390.5,374.5 Z"/></g>
<g><path style="opacity:0.027" fill="#656665" d="M 392.5,374.5 C 393.833,375.167 393.833,375.167 392.5,374.5 Z"/></g>
<g><path style="opacity:0.027" fill="#656665" d="M 394.5,374.5 C 395.833,375.167 395.833,375.167 394.5,374.5 Z"/></g>
<g><path style="opacity:0.027" fill="#656665" d="M 396.5,374.5 C 397.833,375.167 397.833,375.167 396.5,374.5 Z"/></g>
<g><path style="opacity:0.027" fill="#656665" d="M 398.5,374.5 C 399.833,375.167 399.833,375.167 398.5,374.5 Z"/></g>
<g><path style="opacity:0.027" fill="#656665" d="M 400.5,374.5 C 401.833,375.167 401.833,375.167 400.5,374.5 Z"/></g>
<g><path style="opacity:0.027" fill="#656665" d="M 402.5,374.5 C 403.833,375.167 403.833,375.167 402.5,374.5 Z"/></g>
<g><path style="opacity:0.027" fill="#656665" d="M 404.5,374.5 C 405.833,375.167 405.833,375.167 404.5,374.5 Z"/></g>
<g><path style="opacity:0.027" fill="#656665" d="M 406.5,374.5 C 407.833,375.167 407.833,375.167 406.5,374.5 Z"/></g>
<g><path style="opacity:0.027" fill="#656665" d="M 408.5,374.5 C 409.833,375.167 409.833,375.167 408.5,374.5 Z"/></g>
<g><path style="opacity:0.027" fill="#656665" d="M 410.5,374.5 C 411.833,375.167 411.833,375.167 410.5,374.5 Z"/></g>
<g><path style="opacity:0.027" fill="#656665" d="M 412.5,374.5 C 413.833,375.167 413.833,375.167 412.5,374.5 Z"/></g>
<g><path style="opacity:0.027" fill="#656665" d="M 414.5,374.5 C 415.833,375.167 415.833,375.167 414.5,374.5 Z"/></g>
<g><path style="opacity:0.027" fill="#656665" d="M 416.5,374.5 C 417.833,375.167 417.833,375.167 416.5,374.5 Z"/></g>
<g><path style="opacity:0.027" fill="#656665" d="M 419.5,374.5 C 420.833,375.167 420.833,375.167 419.5,374.5 Z"/></g>
<g><path style="opacity:0.027" fill="#656665" d="M 422.5,374.5 C 423.833,375.167 423.833,375.167 422.5,374.5 Z"/></g>
<g><path style="opacity:0.027" fill="#656665" d="M 425.5,374.5 C 426.833,375.167 426.833,375.167 425.5,374.5 Z"/></g>
<g><path style="opacity:0.027" fill="#656665" d="M 428.5,374.5 C 429.833,375.167 429.833,375.167 428.5,374.5 Z"/></g>
<g><path style="opacity:0.027" fill="#656665" d="M 431.5,374.5 C 432.833,375.167 432.833,375.167 431.5,374.5 Z"/></g>
<g><path style="opacity:0.027" fill="#656665" d="M 436.5,375.5 C 437.833,376.167 437.833,376.167 436.5,375.5 Z"/></g>
<g><path style="opacity:0.027" fill="#656665" d="M 309.5,381.5 C 310.833,382.167 310.833,382.167 309.5,381.5 Z"/></g>
<g><path style="opacity:0.027" fill="#656665" d="M 308.5,389.5 C 309.833,390.167 309.833,390.167 308.5,389.5 Z"/></g>
<g><path style="opacity:0.541" fill="#a8a8a8" d="M 301.5,371.5 C 301.082,380.765 299.749,389.765 297.5,398.5C 298.291,389.289 299.625,380.289 301.5,371.5 Z"/></g>
<g><path style="opacity:0.027" fill="#656665" d="M 307.5,395.5 C 308.833,396.167 308.833,396.167 307.5,395.5 Z"/></g>
<g><path style="opacity:0.027" fill="#656665" d="M 138.5,397.5 C 139.833,398.167 139.833,398.167 138.5,397.5 Z"/></g>
<g><path style="opacity:0.027" fill="#656665" d="M 306.5,401.5 C 307.833,402.167 307.833,402.167 306.5,401.5 Z"/></g>
<g><path style="opacity:0.027" fill="#656665" d="M 137.5,403.5 C 138.833,404.167 138.833,404.167 137.5,403.5 Z"/></g>
<g><path style="opacity:1" fill="#8f8e8d" d="M 170.5,401.5 C 170.58,404.781 169.913,407.781 168.5,410.5C 168.42,407.219 169.087,404.219 170.5,401.5 Z"/></g>
<g><path style="opacity:0.027" fill="#656665" d="M 136.5,409.5 C 137.833,410.167 137.833,410.167 136.5,409.5 Z"/></g>
<g><path style="opacity:0.027" fill="#656665" d="M 135.5,414.5 C 136.833,415.167 136.833,415.167 135.5,414.5 Z"/></g>
<g><path style="opacity:0.027" fill="#656665" d="M 135.5,420.5 C 134.833,419.167 134.833,419.167 135.5,420.5 Z"/></g>
<g><path style="opacity:0.027" fill="#656665" d="M 302.5,420.5 C 303.833,421.167 303.833,421.167 302.5,420.5 Z"/></g>
<g><path style="opacity:0.027" fill="#656665" d="M 133.5,423.5 C 134.833,424.167 134.833,424.167 133.5,423.5 Z"/></g>
<g><path style="opacity:0.027" fill="#656665" d="M 133.5,428.5 C 132.833,427.167 132.833,427.167 133.5,428.5 Z"/></g>
<g><path style="opacity:0.027" fill="#656665" d="M 132.5,432.5 C 131.833,431.167 131.833,431.167 132.5,432.5 Z"/></g>
<g><path style="opacity:0.027" fill="#656665" d="M 131.5,435.5 C 130.833,434.167 130.833,434.167 131.5,435.5 Z"/></g>
<g><path style="opacity:0.027" fill="#656665" d="M 129.5,442.5 C 128.833,441.167 128.833,441.167 129.5,442.5 Z"/></g>
<g><path style="opacity:0.027" fill="#656665" d="M 128.5,445.5 C 127.833,444.167 127.833,444.167 128.5,445.5 Z"/></g>
<g><path style="opacity:0.027" fill="#656665" d="M 127.5,448.5 C 126.833,447.167 126.833,447.167 127.5,448.5 Z"/></g>
<g><path style="opacity:0.027" fill="#656665" d="M 126.5,452.5 C 125.833,451.167 125.833,451.167 126.5,452.5 Z"/></g>
<g><path style="opacity:0.027" fill="#656665" d="M 124.5,455.5 C 125.833,456.167 125.833,456.167 124.5,455.5 Z"/></g>
<g><path style="opacity:1" fill="#d6d2d0" d="M 156.5,457.5 C 168.789,459.48 181.456,460.147 194.5,459.5C 200.833,459.5 207.167,459.5 213.5,459.5C 219.833,459.5 226.167,459.5 232.5,459.5C 207.005,460.498 181.339,460.831 155.5,460.5C 155.263,459.209 155.596,458.209 156.5,457.5 Z"/></g>
<g><path style="opacity:0.027" fill="#656665" d="M 124.5,467.5 C 125.833,468.167 125.833,468.167 124.5,467.5 Z"/></g>
<g><path style="opacity:0.027" fill="#656665" d="M 125.5,471.5 C 126.833,472.167 126.833,472.167 125.5,471.5 Z"/></g>
<g><path style="opacity:0.027" fill="#656665" d="M 280.5,474.5 C 281.833,475.167 281.833,475.167 280.5,474.5 Z"/></g>
<g><path style="opacity:0.027" fill="#656665" d="M 128.5,480.5 C 129.833,481.167 129.833,481.167 128.5,480.5 Z"/></g>
<g><path style="opacity:0.027" fill="#656665" d="M 274.5,482.5 C 275.833,483.167 275.833,483.167 274.5,482.5 Z"/></g>
<g><path style="opacity:0.027" fill="#656665" d="M 131.5,484.5 C 132.833,485.167 132.833,485.167 131.5,484.5 Z"/></g>
<g><path style="opacity:0.027" fill="#656665" d="M 133.5,486.5 C 134.833,487.167 134.833,487.167 133.5,486.5 Z"/></g>
<g><path style="opacity:0.027" fill="#656665" d="M 138.5,487.5 C 137.833,488.167 137.833,488.167 138.5,487.5 Z"/></g>
<g><path style="opacity:0.027" fill="#656665" d="M 271.5,487.5 C 272.833,488.167 272.833,488.167 271.5,487.5 Z"/></g>
<g><path style="opacity:0.027" fill="#656665" d="M 267.5,488.5 C 268.833,489.167 268.833,489.167 267.5,488.5 Z"/></g>
<g><path style="opacity:0.027" fill="#656665" d="M 141.5,489.5 C 140.833,490.167 140.833,490.167 141.5,489.5 Z"/></g>
<g><path style="opacity:0.027" fill="#656665" d="M 144.5,491.5 C 145.833,492.167 145.833,492.167 144.5,491.5 Z"/></g>
<g><path style="opacity:0.027" fill="#656665" d="M 262.5,491.5 C 263.833,492.167 263.833,492.167 262.5,491.5 Z"/></g>
<g><path style="opacity:0.027" fill="#656665" d="M 147.5,492.5 C 148.833,493.167 148.833,493.167 147.5,492.5 Z"/></g>
<g><path style="opacity:0.027" fill="#656665" d="M 257.5,492.5 C 258.833,493.167 258.833,493.167 257.5,492.5 Z"/></g>
<g><path style="opacity:0.027" fill="#656665" d="M 151.5,493.5 C 152.833,494.167 152.833,494.167 151.5,493.5 Z"/></g>
<g><path style="opacity:0.027" fill="#656665" d="M 154.5,493.5 C 153.833,494.167 153.833,494.167 154.5,493.5 Z"/></g>
<g><path style="opacity:0.027" fill="#656665" d="M 159.5,493.5 C 159.833,493.5 160.167,493.5 160.5,493.5C 160.315,494.17 159.981,494.17 159.5,493.5 Z"/></g>
<g><path style="opacity:0.027" fill="#656665" d="M 161.5,493.5 C 161.833,493.5 162.167,493.5 162.5,493.5C 162.315,494.17 161.981,494.17 161.5,493.5 Z"/></g>
<g><path style="opacity:0.027" fill="#656665" d="M 164.5,493.5 C 164.833,493.5 165.167,493.5 165.5,493.5C 165.315,494.17 164.981,494.17 164.5,493.5 Z"/></g>
<g><path style="opacity:0.027" fill="#656665" d="M 167.5,493.5 C 167.833,493.5 168.167,493.5 168.5,493.5C 168.315,494.17 167.981,494.17 167.5,493.5 Z"/></g>
<g><path style="opacity:0.027" fill="#656665" d="M 195.5,493.5 C 195.833,493.5 196.167,493.5 196.5,493.5C 196.315,494.17 195.981,494.17 195.5,493.5 Z"/></g>
<g><path style="opacity:0.027" fill="#656665" d="M 198.5,493.5 C 198.833,493.5 199.167,493.5 199.5,493.5C 199.315,494.17 198.981,494.17 198.5,493.5 Z"/></g>
<g><path style="opacity:0.027" fill="#656665" d="M 200.5,493.5 C 200.833,493.5 201.167,493.5 201.5,493.5C 201.315,494.17 200.981,494.17 200.5,493.5 Z"/></g>
<g><path style="opacity:0.027" fill="#656665" d="M 251.5,493.5 C 252.833,494.167 252.833,494.167 251.5,493.5 Z"/></g>
<g><path style="opacity:0.027" fill="#656665" d="M 171.5,494.5 C 172.833,495.167 172.833,495.167 171.5,494.5 Z"/></g>
<g><path style="opacity:0.027" fill="#656665" d="M 174.5,494.5 C 175.833,495.167 175.833,495.167 174.5,494.5 Z"/></g>
<g><path style="opacity:0.027" fill="#656665" d="M 177.5,494.5 C 178.833,495.167 178.833,495.167 177.5,494.5 Z"/></g>
<g><path style="opacity:0.027" fill="#656665" d="M 180.5,494.5 C 181.833,495.167 181.833,495.167 180.5,494.5 Z"/></g>
<g><path style="opacity:0.027" fill="#656665" d="M 183.5,494.5 C 184.833,495.167 184.833,495.167 183.5,494.5 Z"/></g>
<g><path style="opacity:0.027" fill="#656665" d="M 186.5,494.5 C 187.833,495.167 187.833,495.167 186.5,494.5 Z"/></g>
<g><path style="opacity:0.027" fill="#656665" d="M 189.5,494.5 C 190.833,495.167 190.833,495.167 189.5,494.5 Z"/></g>
<g><path style="opacity:0.027" fill="#656665" d="M 192.5,494.5 C 193.833,495.167 193.833,495.167 192.5,494.5 Z"/></g>
<g><path style="opacity:0.027" fill="#656665" d="M 253.5,494.5 C 254.833,495.167 254.833,495.167 253.5,494.5 Z"/></g>
<g><path style="opacity:0.027" fill="#656665" d="M 169.5,495.5 C 170.833,496.167 170.833,496.167 169.5,495.5 Z"/></g>
<g><path style="opacity:0.027" fill="#656665" d="M 202.5,495.5 C 203.833,496.167 203.833,496.167 202.5,495.5 Z"/></g>
<g><path style="opacity:0.027" fill="#656665" d="M 205.5,495.5 C 206.833,496.167 206.833,496.167 205.5,495.5 Z"/></g>
<g><path style="opacity:0.027" fill="#656665" d="M 208.5,495.5 C 209.833,496.167 209.833,496.167 208.5,495.5 Z"/></g>
<g><path style="opacity:0.027" fill="#656665" d="M 211.5,495.5 C 212.833,496.167 212.833,496.167 211.5,495.5 Z"/></g>
<g><path style="opacity:0.027" fill="#656665" d="M 214.5,495.5 C 215.833,496.167 215.833,496.167 214.5,495.5 Z"/></g>
<g><path style="opacity:0.027" fill="#656665" d="M 217.5,495.5 C 218.833,496.167 218.833,496.167 217.5,495.5 Z"/></g>
<g><path style="opacity:0.027" fill="#656665" d="M 220.5,495.5 C 221.833,496.167 221.833,496.167 220.5,495.5 Z"/></g>
<g><path style="opacity:0.027" fill="#656665" d="M 223.5,495.5 C 224.833,496.167 224.833,496.167 223.5,495.5 Z"/></g>
<g><path style="opacity:0.027" fill="#656665" d="M 226.5,495.5 C 227.833,496.167 227.833,496.167 226.5,495.5 Z"/></g>
<g><path style="opacity:0.027" fill="#656665" d="M 229.5,495.5 C 230.833,496.167 230.833,496.167 229.5,495.5 Z"/></g>
<g><path style="opacity:0.027" fill="#656665" d="M 232.5,495.5 C 233.833,496.167 233.833,496.167 232.5,495.5 Z"/></g>
<g><path style="opacity:0.027" fill="#656665" d="M 235.5,495.5 C 236.833,496.167 236.833,496.167 235.5,495.5 Z"/></g>
<g><path style="opacity:0.027" fill="#656665" d="M 238.5,495.5 C 239.833,496.167 239.833,496.167 238.5,495.5 Z"/></g>
<g><path style="opacity:0.027" fill="#656665" d="M 241.5,495.5 C 242.833,496.167 242.833,496.167 241.5,495.5 Z"/></g>
<g><path style="opacity:0.027" fill="#656665" d="M 244.5,495.5 C 245.833,496.167 245.833,496.167 244.5,495.5 Z"/></g>
</svg>
